<?xml version="1.0" encoding="utf-8" standalone="yes"?>
<!DOCTYPE svg PUBLIC "-//W3C//DTD SVG 1.1//EN" "http://www.w3.org/Graphics/SVG/1.1/DTD/svg11.dtd">
<svg width="698" height="451" viewBox="0 0 698 451" style="fill:none;stroke:none;fill-rule:evenodd;clip-rule:evenodd;stroke-linecap:round;stroke-linejoin:round;stroke-miterlimit:1.5;" version="1.1" xmlns="http://www.w3.org/2000/svg" xmlns:xlink="http://www.w3.org/1999/xlink"><style id="fontImports">@import url("https://fonts.googleapis.com/css2?family=Roboto:wght@400;700&amp;display=block");</style><g id="items" style="isolation: isolate"><g id="blend" style="mix-blend-mode:screen"><g id="g-root-ro_vbpmgd1721pmu-fill" data-item-order="-29232" data-item-id="ro_vbpmgd1721pmu" data-item-class="Shape Stroke Fill" data-item-index="none" data-renderer-id="0" transform="translate(243, 54)"><g id="ro_vbpmgd1721pmu-fill" stroke="none" fill="#505050"><g><path d="M 34 10L 154 10C 154 10 178 10 178 34L 178 160C 178 160 178 184 154 184L 34 184C 34 184 10 184 10 160L 10 34C 10 34 10 10 34 10"></path></g></g></g><g id="g-root-ro_1cymhnx171rv2k-fill" data-item-order="-13608" data-item-id="ro_1cymhnx171rv2k" data-item-class="Shape Stroke Fill" data-item-index="none" data-renderer-id="0" transform="translate(201, 303)"><g id="ro_1cymhnx171rv2k-fill" stroke="none" fill="#692e2c"><g><path d="M 22 10L 250 10C 250 10 262 10 262 22L 262 52C 262 52 262 64 250 64L 22 64C 22 64 10 64 10 52L 10 22C 10 22 10 10 22 10"></path></g></g></g><g id="g-root-ro_qqwest1720bnk-fill" data-item-order="-11664" data-item-id="ro_qqwest1720bnk" data-item-class="Shape Stroke Fill" data-item-index="none" data-renderer-id="0" transform="translate(459, 153)"><g id="ro_qqwest1720bnk-fill" stroke="none" fill="#4f4a20"><g><path d="M 22 10L 214 10C 214 10 226 10 226 22L 226 52C 226 52 226 64 214 64L 22 64C 22 64 10 64 10 52L 10 22C 10 22 10 10 22 10"></path></g></g></g><g id="g-root-ro_1lr54h9171yxac-fill" data-item-order="-10368" data-item-id="ro_1lr54h9171yxac" data-item-class="Shape Stroke Fill" data-item-index="none" data-renderer-id="0" transform="translate(3, 3)"><g id="ro_1lr54h9171yxac-fill" stroke="none" fill="#293f64"><g><path d="M 22 10L 190 10C 190 10 202 10 202 22L 202 52C 202 52 202 64 190 64L 22 64C 22 64 10 64 10 52L 10 22C 10 22 10 10 22 10"></path></g></g></g><g id="g-root-ro_18nsp2l171tama-fill" data-item-order="-9720" data-item-id="ro_18nsp2l171tama" data-item-class="Shape Stroke Fill" data-item-index="none" data-renderer-id="0" transform="translate(459, 3)"><g id="ro_18nsp2l171tama-fill" stroke="none" fill="#2b503e"><g><path d="M 22 10L 178 10C 178 10 190 10 190 22L 190 52C 190 52 190 64 178 64L 22 64C 22 64 10 64 10 52L 10 22C 10 22 10 10 22 10"></path></g></g></g><g id="g-root-ro_58ijx171i22y-fill" data-item-order="-9720" data-item-id="ro_58ijx171i22y" data-item-class="Shape Stroke Fill" data-item-index="none" data-renderer-id="0" transform="translate(15, 153)"><g id="ro_58ijx171i22y-fill" stroke="none" fill="#5a3f27"><g><path d="M 22 10L 178 10C 178 10 190 10 190 22L 190 52C 190 52 190 64 178 64L 22 64C 22 64 10 64 10 52L 10 22C 10 22 10 10 22 10"></path></g></g></g><g id="g-root-cu_1hfp14d171i13a-fill" data-item-order="0" data-item-id="cu_1hfp14d171i13a" data-item-class="Curve Stroke ColorFillBlack ColorStrokeBlack" data-item-index="none" data-renderer-id="0" transform="translate(411, 30)"></g><g id="g-root-tx_dienstpl_1lz97fx171t91c-fill" data-item-order="0" data-item-id="tx_dienstpl_1lz97fx171t91c" data-item-class="Label Stroke" data-item-index="none" data-renderer-id="0" transform="translate(507, 18)"><g id="tx_dienstpl_1lz97fx171t91c-fill" stroke="none" fill="#44E095"><g><text style="font: 20px Roboto, sans-serif; white-space: pre;"><tspan x="17.48" y="33.5" dominant-baseline="ideographic">Dienstpläne</tspan></text></g></g></g><g id="g-root-cu_zof0ml171i3gq-fill" data-item-order="0" data-item-id="cu_zof0ml171i3gq" data-item-class="Curve Stroke ColorFillBlack ColorStrokeBlack" data-item-index="none" data-renderer-id="0" transform="translate(153, 57)"></g><g id="g-root-cu_hxrh7x171i2o5-fill" data-item-order="0" data-item-id="cu_hxrh7x171i2o5" data-item-class="Curve Stroke ColorFillBlack ColorStrokeBlack" data-item-index="none" data-renderer-id="0" transform="translate(153, 57)"></g><g id="g-root-tx_datenein_18iszjh171rvut-fill" data-item-order="0" data-item-id="tx_datenein_18iszjh171rvut" data-item-class="Label Stroke" data-item-index="none" data-renderer-id="0" transform="translate(15, 69)"><g id="tx_datenein_18iszjh171rvut-fill" stroke="none" fill="#A3A3A3"><g><text style="font: 20px Roboto, sans-serif; white-space: pre;"><tspan x="14.72" y="33.5" dominant-baseline="ideographic">Dateneingabe</tspan></text></g></g></g><g id="g-root-cu_924gz1171i3gv-fill" data-item-order="0" data-item-id="cu_924gz1171i3gv" data-item-class="Curve Stroke ColorFillBlack ColorStrokeBlack" data-item-index="none" data-renderer-id="0" transform="translate(483, 57)"></g><g id="g-root-cu_4mxfxp171i13e-fill" data-item-order="0" data-item-id="cu_4mxfxp171i13e" data-item-class="Curve Stroke ColorFillBlack ColorStrokeBlack" data-item-index="none" data-renderer-id="0" transform="translate(483, 57)"></g><g id="g-root-rule_zrj4kt1721oul-fill" data-item-order="0" data-item-id="rule_zrj4kt1721oul" data-item-class="Icon Stroke" data-item-index="none" data-renderer-id="0" transform="translate(303, 78)"></g><g id="g-root-tx_planung_hwifvx171rvuv-fill" data-item-order="0" data-item-id="tx_planung_hwifvx171rvuv" data-item-class="Label Stroke" data-item-index="none" data-renderer-id="0" transform="translate(507, 69)"><g id="tx_planung_hwifvx171rvuv-fill" stroke="none" fill="#A3A3A3"><g><text style="font: 20px Roboto, sans-serif; white-space: pre;"><tspan x="15.66" y="33.5" dominant-baseline="ideographic">Planung</tspan></text></g></g></g><g id="g-root-tx_auswertu_hydv59171ruva-fill" data-item-order="0" data-item-id="tx_auswertu_hydv59171ruva" data-item-class="Label Stroke" data-item-index="none" data-renderer-id="0" transform="translate(249, 405)"><g id="tx_auswertu_hydv59171ruva-fill" stroke="none" fill="#A3A3A3"><g><text style="font: 20px Roboto, sans-serif; white-space: pre;"><tspan x="16.51" y="33.5" dominant-baseline="ideographic">Auswertung</tspan></text></g></g></g><g id="g-root-tx_berwachu_dgoxrh171rwn4-fill" data-item-order="0" data-item-id="tx_berwachu_dgoxrh171rwn4" data-item-class="Label Stroke" data-item-index="none" data-renderer-id="0" transform="translate(507, 105)"><g id="tx_berwachu_dgoxrh171rwn4-fill" stroke="none" fill="#A3A3A3"><g><text style="font: 20px Roboto, sans-serif; white-space: pre;"><tspan x="14.8" y="33.5" dominant-baseline="ideographic">Überwachung</tspan></text></g></g></g><g id="g-root-tx_digitale_1ly063x1721pms-fill" data-item-order="0" data-item-id="tx_digitale_1ly063x1721pms" data-item-class="Label Stroke" data-item-index="none" data-renderer-id="0" transform="translate(267, 132)"><g id="tx_digitale_1ly063x1721pms-fill" stroke="none" fill="#A3A3A3"><g><text style="font: 20px Roboto, sans-serif; white-space: pre;"><tspan x="36.55" y="33.5" dominant-baseline="ideographic">Digitale </tspan><tspan x="14.64" y="57.5" dominant-baseline="ideographic">Verwaltungs</tspan><tspan x="22.13" y="81.5" dominant-baseline="ideographic">werkzeuge</tspan></text></g></g></g><g id="g-root-cu_1luw25p171i3gr-fill" data-item-order="0" data-item-id="cu_1luw25p171i3gr" data-item-class="Curve Stroke ColorFillBlack ColorStrokeBlack" data-item-index="none" data-renderer-id="0" transform="translate(195, 30)"></g><g id="g-root-beac_90vist171i1a9-fill" data-item-order="0" data-item-id="beac_90vist171i1a9" data-item-class="Icon Stroke" data-item-index="none" data-renderer-id="0" transform="translate(153, 165)"></g><g id="g-root-4_1d3m771171t9u1-fill" data-item-order="0" data-item-id="4_1d3m771171t9u1" data-item-class="Icon Stroke" data-item-index="none" data-renderer-id="0" transform="translate(471, 15)"></g><g id="g-root-tx_urlaubst_mbpk31171i2v4-fill" data-item-order="0" data-item-id="tx_urlaubst_mbpk31171i2v4" data-item-class="Label Stroke" data-item-index="none" data-renderer-id="0" transform="translate(27, 168)"><g id="tx_urlaubst_mbpk31171i2v4-fill" stroke="none" fill="#F99539"><g><text style="font: 20px Roboto, sans-serif; white-space: pre;"><tspan x="16.37" y="33.5" dominant-baseline="ideographic">Urlaubstage</tspan></text></g></g></g><g id="g-root-cu_1448ir1171i2oc-fill" data-item-order="0" data-item-id="cu_1448ir1171i2oc" data-item-class="Curve Stroke ColorFillBlack ColorStrokeBlack" data-item-index="none" data-renderer-id="0" transform="translate(195, 170)"></g><g id="g-root-cu_1czvizx171i1vl-fill" data-item-order="0" data-item-id="cu_1czvizx171i1vl" data-item-class="Curve Stroke ColorFillBlack ColorStrokeBlack" data-item-index="none" data-renderer-id="0" transform="translate(411, 170)"></g><g id="g-root-boxe_v6pwx91720avb-fill" data-item-order="0" data-item-id="boxe_v6pwx91720avb" data-item-class="Icon Stroke" data-item-index="none" data-renderer-id="0" transform="translate(471, 165)"></g><g id="g-root-tx_unterwei_18hjy7h1720cg6-fill" data-item-order="0" data-item-id="tx_unterwei_18hjy7h1720cg6" data-item-class="Label Stroke" data-item-index="none" data-renderer-id="0" transform="translate(507, 168)"><g id="tx_unterwei_18hjy7h1720cg6-fill" stroke="none" fill="#FFE60A"><g><text style="font: 20px Roboto, sans-serif; white-space: pre;"><tspan x="16.11" y="33.5" dominant-baseline="ideographic">Unterweisungen</tspan></text></g></g></g><g id="g-root-tx_genehmig_1czvfu5171rx8r-fill" data-item-order="0" data-item-id="tx_genehmig_1czvfu5171rx8r" data-item-class="Label Stroke" data-item-index="none" data-renderer-id="0" transform="translate(15, 219)"><g id="tx_genehmig_1czvfu5171rx8r-fill" stroke="none" fill="#A3A3A3"><g><text style="font: 20px Roboto, sans-serif; white-space: pre;"><tspan x="14.13" y="33.5" dominant-baseline="ideographic">Genehmigung</tspan></text></g></g></g><g id="g-root-cu_1lwrhf1171i39l-fill" data-item-order="0" data-item-id="cu_1lwrhf1171i39l" data-item-class="Curve Stroke ColorFillBlack ColorStrokeBlack" data-item-index="none" data-renderer-id="0" transform="translate(153, 207)"></g><g id="g-root-cu_1hhkgdp171i0w4-fill" data-item-order="0" data-item-id="cu_1hhkgdp171i0w4" data-item-class="Curve Stroke ColorFillBlack ColorStrokeBlack" data-item-index="none" data-renderer-id="0" transform="translate(153, 207)"></g><g id="g-root-cu_73xt9171i1vo-fill" data-item-order="0" data-item-id="cu_73xt9171i1vo" data-item-class="Curve Stroke ColorFillBlack ColorStrokeBlack" data-item-index="none" data-renderer-id="0" transform="translate(483, 207)"></g><g id="g-root-cu_1qckzjh171i2hb-fill" data-item-order="0" data-item-id="cu_1qckzjh171i2hb" data-item-class="Curve Stroke ColorFillBlack ColorStrokeBlack" data-item-index="none" data-renderer-id="0" transform="translate(483, 207)"></g><g id="g-root-cu_1448ir1171i2of-fill" data-item-order="0" data-item-id="cu_1448ir1171i2of" data-item-class="Curve Stroke ColorFillBlack ColorStrokeBlack" data-item-index="none" data-renderer-id="0" transform="translate(327, 228)"></g><g id="g-root-tx_dokument_5uwh9171rv29-fill" data-item-order="0" data-item-id="tx_dokument_5uwh9171rv29" data-item-class="Label Stroke" data-item-index="none" data-renderer-id="0" transform="translate(507, 219)"><g id="tx_dokument_5uwh9171rv29-fill" stroke="none" fill="#A3A3A3"><g><text style="font: 20px Roboto, sans-serif; white-space: pre;"><tspan x="13.96" y="33.5" dominant-baseline="ideographic">Dokumentation</tspan></text></g></g></g><g id="g-root-tx_tracking_18koest171ruv8-fill" data-item-order="0" data-item-id="tx_tracking_18koest171ruv8" data-item-class="Label Stroke" data-item-index="none" data-renderer-id="0" transform="translate(63, 255)"><g id="tx_tracking_18koest171ruv8-fill" stroke="none" fill="#A3A3A3"><g><text style="font: 20px Roboto, sans-serif; white-space: pre;"><tspan x="13.91" y="33.5" dominant-baseline="ideographic">Tracking</tspan></text></g></g></g><g id="g-root-tx_schulung_1qbby7h171rvnu-fill" data-item-order="0" data-item-id="tx_schulung_1qbby7h171rvnu" data-item-class="Label Stroke" data-item-index="none" data-renderer-id="0" transform="translate(507, 255)"><g id="tx_schulung_1qbby7h171rvnu-fill" stroke="none" fill="#A3A3A3"><g><text style="font: 20px Roboto, sans-serif; white-space: pre;"><tspan x="16.74" y="33.5" dominant-baseline="ideographic">Schulung</tspan></text></g></g></g><g id="g-root-hier_1hkvh171yvwj-fill" data-item-order="0" data-item-id="hier_1hkvh171yvwj" data-item-class="Icon Stroke" data-item-index="none" data-renderer-id="0" transform="translate(153, 15)"></g><g id="g-root-educ_1q9giy5171rwnf-fill" data-item-order="0" data-item-id="educ_1q9giy5171rwnf" data-item-class="Icon Stroke" data-item-index="none" data-renderer-id="0" transform="translate(213, 315)"></g><g id="g-root-tx_prfungse_4jszcd171rv9m-fill" data-item-order="0" data-item-id="tx_prfungse_4jszcd171rv9m" data-item-class="Label Stroke" data-item-index="none" data-renderer-id="0" transform="translate(249, 318)"><g id="tx_prfungse_4jszcd171rv9m-fill" stroke="none" fill="#FD6A65"><g><text style="font: 20px Roboto, sans-serif; white-space: pre;"><tspan x="16.86" y="33.5" dominant-baseline="ideographic">Prüfungsergebnisse</tspan></text></g></g></g><g id="g-root-cu_18lxg4t171i1ou-fill" data-item-order="0" data-item-id="cu_18lxg4t171i1ou" data-item-class="Curve Stroke ColorFillBlack ColorStrokeBlack" data-item-index="none" data-renderer-id="0" transform="translate(225, 357)"></g><g id="g-root-cu_1463y0d171i2h5-fill" data-item-order="0" data-item-id="cu_1463y0d171i2h5" data-item-class="Curve Stroke ColorFillBlack ColorStrokeBlack" data-item-index="none" data-renderer-id="0" transform="translate(225, 357)"></g><g id="g-root-tx_erfassun_mdkw6l171rx8t-fill" data-item-order="0" data-item-id="tx_erfassun_mdkw6l171rx8t" data-item-class="Label Stroke" data-item-index="none" data-renderer-id="0" transform="translate(249, 369)"><g id="tx_erfassun_mdkw6l171rx8t-fill" stroke="none" fill="#A3A3A3"><g><text style="font: 20px Roboto, sans-serif; white-space: pre;"><tspan x="12.99" y="33.5" dominant-baseline="ideographic">Erfassung</tspan></text></g></g></g><g id="g-root-tx_berichts_4golwt171yya2-fill" data-item-order="0" data-item-id="tx_berichts_4golwt171yya2" data-item-class="Label Stroke" data-item-index="none" data-renderer-id="0" transform="translate(15, 18)"><g id="tx_berichts_4golwt171yya2-fill" stroke="none" fill="#4F92FF"><g><text style="font: 20px Roboto, sans-serif; white-space: pre;"><tspan x="16.66" y="33.5" dominant-baseline="ideographic">Berichtshefte</tspan></text></g></g></g><g id="g-root-tx_protokol_v7ch65171rxfq-fill" data-item-order="0" data-item-id="tx_protokol_v7ch65171rxfq" data-item-class="Label Stroke" data-item-index="none" data-renderer-id="0" transform="translate(3, 105)"><g id="tx_protokol_v7ch65171rxfq-fill" stroke="none" fill="#A3A3A3"><g><text style="font: 20px Roboto, sans-serif; white-space: pre;"><tspan x="14.45" y="33.5" dominant-baseline="ideographic">Protokollierung</tspan></text></g></g></g><g id="g-root-ro_vbpmgd1721pmu-stroke" data-item-order="-29232" data-item-id="ro_vbpmgd1721pmu" data-item-class="Shape Stroke Fill" data-item-index="none" data-renderer-id="0" transform="translate(243, 54)"><g id="ro_vbpmgd1721pmu-stroke" fill="none" stroke-linecap="round" stroke-linejoin="round" stroke-miterlimit="4" stroke="#A3A3A3" stroke-width="2"><g><path d="M 34 10L 154 10C 154 10 178 10 178 34L 178 160C 178 160 178 184 154 184L 34 184C 34 184 10 184 10 160L 10 34C 10 34 10 10 34 10"></path></g></g></g><g id="g-root-ro_1cymhnx171rv2k-stroke" data-item-order="-13608" data-item-id="ro_1cymhnx171rv2k" data-item-class="Shape Stroke Fill" data-item-index="none" data-renderer-id="0" transform="translate(201, 303)"><g id="ro_1cymhnx171rv2k-stroke" fill="none" stroke-linecap="round" stroke-linejoin="round" stroke-miterlimit="4" stroke="#FD6A65" stroke-width="2"><g><path d="M 22 10L 250 10C 250 10 262 10 262 22L 262 52C 262 52 262 64 250 64L 22 64C 22 64 10 64 10 52L 10 22C 10 22 10 10 22 10"></path></g></g></g><g id="g-root-ro_qqwest1720bnk-stroke" data-item-order="-11664" data-item-id="ro_qqwest1720bnk" data-item-class="Shape Stroke Fill" data-item-index="none" data-renderer-id="0" transform="translate(459, 153)"><g id="ro_qqwest1720bnk-stroke" fill="none" stroke-linecap="round" stroke-linejoin="round" stroke-miterlimit="4" stroke="#FFE60A" stroke-width="2"><g><path d="M 22 10L 214 10C 214 10 226 10 226 22L 226 52C 226 52 226 64 214 64L 22 64C 22 64 10 64 10 52L 10 22C 10 22 10 10 22 10"></path></g></g></g><g id="g-root-ro_1lr54h9171yxac-stroke" data-item-order="-10368" data-item-id="ro_1lr54h9171yxac" data-item-class="Shape Stroke Fill" data-item-index="none" data-renderer-id="0" transform="translate(3, 3)"><g id="ro_1lr54h9171yxac-stroke" fill="none" stroke-linecap="round" stroke-linejoin="round" stroke-miterlimit="4" stroke="#4F92FF" stroke-width="2"><g><path d="M 22 10L 190 10C 190 10 202 10 202 22L 202 52C 202 52 202 64 190 64L 22 64C 22 64 10 64 10 52L 10 22C 10 22 10 10 22 10"></path></g></g></g><g id="g-root-ro_18nsp2l171tama-stroke" data-item-order="-9720" data-item-id="ro_18nsp2l171tama" data-item-class="Shape Stroke Fill" data-item-index="none" data-renderer-id="0" transform="translate(459, 3)"><g id="ro_18nsp2l171tama-stroke" fill="none" stroke-linecap="round" stroke-linejoin="round" stroke-miterlimit="4" stroke="#44E095" stroke-width="2"><g><path d="M 22 10L 178 10C 178 10 190 10 190 22L 190 52C 190 52 190 64 178 64L 22 64C 22 64 10 64 10 52L 10 22C 10 22 10 10 22 10"></path></g></g></g><g id="g-root-ro_58ijx171i22y-stroke" data-item-order="-9720" data-item-id="ro_58ijx171i22y" data-item-class="Shape Stroke Fill" data-item-index="none" data-renderer-id="0" transform="translate(15, 153)"><g id="ro_58ijx171i22y-stroke" fill="none" stroke-linecap="round" stroke-linejoin="round" stroke-miterlimit="4" stroke="#F99539" stroke-width="2"><g><path d="M 22 10L 178 10C 178 10 190 10 190 22L 190 52C 190 52 190 64 178 64L 22 64C 22 64 10 64 10 52L 10 22C 10 22 10 10 22 10"></path></g></g></g><g id="g-root-cu_1hfp14d171i13a-stroke" data-item-order="0" data-item-id="cu_1hfp14d171i13a" data-item-class="Curve Stroke ColorFillBlack ColorStrokeBlack" data-item-index="none" data-renderer-id="0" transform="translate(411, 30)"><g id="cu_1hfp14d171i13a-stroke" fill="none" stroke-linecap="round" stroke-linejoin="round" stroke-miterlimit="4" stroke="#666666" stroke-width="2" stroke-dasharray="5.0, 7.0"><g><path d="M 10 92L 13 92L 13.1 92C 24.642748 92.000003 33.999998 82.642755 33.999998 71.100003L 34 71L 34 30.9C 33.999999 19.357249 43.357248 10.000001 54.899999 10.000002L 55 10L 58 10"></path></g></g></g><g id="g-root-tx_dienstpl_1lz97fx171t91c-stroke" data-item-order="0" data-item-id="tx_dienstpl_1lz97fx171t91c" data-item-class="Label Stroke" data-item-index="none" data-renderer-id="0" transform="translate(507, 18)"></g><g id="g-root-cu_zof0ml171i3gq-stroke" data-item-order="0" data-item-id="cu_zof0ml171i3gq" data-item-class="Curve Stroke ColorFillBlack ColorStrokeBlack" data-item-index="none" data-renderer-id="0" transform="translate(153, 57)"><g id="cu_zof0ml171i3gq-stroke" fill="none" stroke-linecap="round" stroke-linejoin="round" stroke-miterlimit="4" stroke="#666666" stroke-width="2" stroke-dasharray="5.0, 7.0"><g><path d="M 28 10L 28 22L 28 34L 19 34L 10 34"></path></g></g></g><g id="g-root-cu_hxrh7x171i2o5-stroke" data-item-order="0" data-item-id="cu_hxrh7x171i2o5" data-item-class="Curve Stroke ColorFillBlack ColorStrokeBlack" data-item-index="none" data-renderer-id="0" transform="translate(153, 57)"><g id="cu_hxrh7x171i2o5-stroke" fill="none" stroke-linecap="round" stroke-linejoin="round" stroke-miterlimit="4" stroke="#666666" stroke-width="2" stroke-dasharray="5.0, 7.0"><g><path d="M 28 10L 28 17.5L 28 58C 27.999999 64.627415 22.627416 69.999998 16 69.999998L 15.9 70L 10 70"></path></g></g></g><g id="g-root-tx_datenein_18iszjh171rvut-stroke" data-item-order="0" data-item-id="tx_datenein_18iszjh171rvut" data-item-class="Label Stroke" data-item-index="none" data-renderer-id="0" transform="translate(15, 69)"></g><g id="g-root-cu_924gz1171i3gv-stroke" data-item-order="0" data-item-id="cu_924gz1171i3gv" data-item-class="Curve Stroke ColorFillBlack ColorStrokeBlack" data-item-index="none" data-renderer-id="0" transform="translate(483, 57)"><g id="cu_924gz1171i3gv-stroke" fill="none" stroke-linecap="round" stroke-linejoin="round" stroke-miterlimit="4" stroke="#666666" stroke-width="2" stroke-dasharray="5.0, 7.0"><g><path d="M 10 10L 10 22L 10 34L 19 34L 28 34"></path></g></g></g><g id="g-root-cu_4mxfxp171i13e-stroke" data-item-order="0" data-item-id="cu_4mxfxp171i13e" data-item-class="Curve Stroke ColorFillBlack ColorStrokeBlack" data-item-index="none" data-renderer-id="0" transform="translate(483, 57)"><g id="cu_4mxfxp171i13e-stroke" fill="none" stroke-linecap="round" stroke-linejoin="round" stroke-miterlimit="4" stroke="#666666" stroke-width="2" stroke-dasharray="5.0, 7.0"><g><path d="M 10 10L 10 17.5L 10 58C 10.000002 64.627417 15.372585 70 22.000002 69.999999L 22.1 70L 28 70"></path></g></g></g><g id="g-root-rule_zrj4kt1721oul-stroke" data-item-order="0" data-item-id="rule_zrj4kt1721oul" data-item-class="Icon Stroke" data-item-index="none" data-renderer-id="0" transform="translate(303, 78)"><g id="rule_zrj4kt1721oul-stroke" fill="none" stroke-linecap="round" stroke-linejoin="round" stroke-miterlimit="4" stroke="#A3A3A3" stroke-width="2"><g><path d="M 11.718345 42.558014L 42.580521 11.695833L 56.302437 25.417744L 25.440252 56.279922ZM 35.714287 18.571428L 40.857143 23.714287M 27.142857 27.142857L 32.285713 32.285713M 18.571428 35.714287L 23.714287 40.857143"></path></g></g></g><g id="g-root-tx_planung_hwifvx171rvuv-stroke" data-item-order="0" data-item-id="tx_planung_hwifvx171rvuv" data-item-class="Label Stroke" data-item-index="none" data-renderer-id="0" transform="translate(507, 69)"></g><g id="g-root-tx_auswertu_hydv59171ruva-stroke" data-item-order="0" data-item-id="tx_auswertu_hydv59171ruva" data-item-class="Label Stroke" data-item-index="none" data-renderer-id="0" transform="translate(249, 405)"></g><g id="g-root-tx_berwachu_dgoxrh171rwn4-stroke" data-item-order="0" data-item-id="tx_berwachu_dgoxrh171rwn4" data-item-class="Label Stroke" data-item-index="none" data-renderer-id="0" transform="translate(507, 105)"></g><g id="g-root-tx_digitale_1ly063x1721pms-stroke" data-item-order="0" data-item-id="tx_digitale_1ly063x1721pms" data-item-class="Label Stroke" data-item-index="none" data-renderer-id="0" transform="translate(267, 132)"></g><g id="g-root-cu_1luw25p171i3gr-stroke" data-item-order="0" data-item-id="cu_1luw25p171i3gr" data-item-class="Curve Stroke ColorFillBlack ColorStrokeBlack" data-item-index="none" data-renderer-id="0" transform="translate(195, 30)"><g id="cu_1luw25p171i3gr-stroke" fill="none" stroke-linecap="round" stroke-linejoin="round" stroke-miterlimit="4" stroke="#666666" stroke-width="2" stroke-dasharray="5.0, 7.0"><g><path d="M 58 92L 55 92L 54.9 92C 43.357247 92 33.999998 82.642751 33.999998 71.1L 34 71L 34 30.9C 33.999998 19.357248 24.64275 10 13.1 10L 13 10L 10 10"></path></g></g></g><g id="g-root-beac_90vist171i1a9-stroke" data-item-order="0" data-item-id="beac_90vist171i1a9" data-item-class="Icon Stroke" data-item-index="none" data-renderer-id="0" transform="translate(153, 165)"><g id="beac_90vist171i1a9-stroke" fill="none" stroke-linecap="round" stroke-linejoin="round" stroke-miterlimit="4" stroke="#F99539" stroke-width="2"><g><path d="M 32.326248 18.94375C 32.710045 18.810719 33.005264 18.499496 33.117874 18.109221C 33.230484 17.718945 33.146435 17.298288 32.892498 16.981251C 29.584343 12.838723 24.022915 11.233515 19.016129 12.976081C 14.009343 14.718647 10.646314 19.429932 10.625 24.731251C 10.623103 25.13706 10.818325 25.518536 11.148583 25.754362C 11.478842 25.990191 11.903029 26.051018 12.28625 25.9175ZM 19.02 12.98625L 18.1975 10.625M 22.30625 22.43L 23.841249 26.84M 30.19875 35.237499C 29.963089 35.484707 29.636538 35.624725 29.295 35.625L 13.145 35.625C 11.764288 35.625 10.645 34.505714 10.645 33.125C 10.645 31.744287 11.764288 30.625 13.145 30.625L 27.16625 30.625C 27.512762 30.624878 27.843678 30.480923 28.08 30.227499L 34.97625 24.172501C 35.936882 23.150772 37.5439 23.101246 38.565628 24.061874C 39.587353 25.022505 39.636883 26.629522 38.67625 27.651251ZM 15.645 39.375L 18.125 35.625M 30.592501 39.375L 28.125 35.625"></path></g></g></g><g id="g-root-4_1d3m771171t9u1-stroke" data-item-order="0" data-item-id="4_1d3m771171t9u1" data-item-class="Icon Stroke" data-item-index="none" data-renderer-id="0" transform="translate(471, 15)"><g id="4_1d3m771171t9u1-stroke" fill="none" stroke-linecap="round" stroke-linejoin="round" stroke-miterlimit="4" stroke="#44E095" stroke-width="2"><g><path d="M 10.9375 10.9375L 10.9375 39.0625L 39.0625 39.0625M 23.75 15.3125L 15 15.3125C 14.625 15.3125 14.375 15.0625 14.375 14.6875L 14.375 12.1875C 14.375 11.8125 14.625 11.5625 15 11.5625L 23.75 11.5625C 24.125 11.5625 24.375 11.8125 24.375 12.1875L 24.375 14.6875C 24.375 15.0625 24.125 15.3125 23.75 15.3125ZM 32.8125 21.875L 19.6875 21.875C 19.3125 21.875 19.0625 21.625 19.0625 21.25L 19.0625 18.75C 19.0625 18.375 19.3125 18.125 19.6875 18.125L 32.8125 18.125C 33.1875 18.125 33.4375 18.375 33.4375 18.75L 33.4375 21.25C 33.4375 21.625 33.1875 21.875 32.8125 21.875ZM 36.5625 28.4375L 25.9375 28.4375C 25.5625 28.4375 25.3125 28.1875 25.3125 27.8125L 25.3125 25.3125C 25.3125 24.9375 25.5625 24.6875 25.9375 24.6875L 36.5625 24.6875C 36.9375 24.6875 37.1875 24.9375 37.1875 25.3125L 37.1875 27.8125C 37.1875 28.1875 36.9375 28.4375 36.5625 28.4375ZM 26.25 35L 15.625 35C 15.25 35 15 34.75 15 34.375L 15 31.875C 15 31.5 15.25 31.25 15.625 31.25L 26.25 31.25C 26.625 31.25 26.875 31.5 26.875 31.875L 26.875 34.375C 26.875 34.75 26.625 35 26.25 35ZM 38.4375 35L 33.4375 35C 33.0625 35 32.8125 34.75 32.8125 34.375L 32.8125 31.875C 32.8125 31.5 33.0625 31.25 33.4375 31.25L 38.4375 31.25C 38.8125 31.25 39.0625 31.5 39.0625 31.875L 39.0625 34.375C 39.0625 34.75 38.8125 35 38.4375 35Z"></path></g></g></g><g id="g-root-tx_urlaubst_mbpk31171i2v4-stroke" data-item-order="0" data-item-id="tx_urlaubst_mbpk31171i2v4" data-item-class="Label Stroke" data-item-index="none" data-renderer-id="0" transform="translate(27, 168)"></g><g id="g-root-cu_1448ir1171i2oc-stroke" data-item-order="0" data-item-id="cu_1448ir1171i2oc" data-item-class="Curve Stroke ColorFillBlack ColorStrokeBlack" data-item-index="none" data-renderer-id="0" transform="translate(195, 170)"><g id="cu_1448ir1171i2oc-stroke" fill="none" stroke-linecap="round" stroke-linejoin="round" stroke-miterlimit="4" stroke="#666666" stroke-width="2" stroke-dasharray="5.0, 7.0"><g><path d="M 58 10L 55 10L 54.9 10C 51.639401 10.016148 48.03708 10.453814 44.200002 11.299999C 41.965481 11.745013 38.361958 13.052173 34 14.999999C 29.638043 16.947825 26.03452 18.254985 23.8 18.699999C 19.962923 19.546185 16.360601 19.98385 13.1 20L 13 20L 10 20"></path></g></g></g><g id="g-root-cu_1czvizx171i1vl-stroke" data-item-order="0" data-item-id="cu_1czvizx171i1vl" data-item-class="Curve Stroke ColorFillBlack ColorStrokeBlack" data-item-index="none" data-renderer-id="0" transform="translate(411, 170)"><g id="cu_1czvizx171i1vl-stroke" fill="none" stroke-linecap="round" stroke-linejoin="round" stroke-miterlimit="4" stroke="#666666" stroke-width="2" stroke-dasharray="5.0, 7.0"><g><path d="M 10 10L 13 10L 13.1 10C 16.360602 10.01615 19.962923 10.453815 23.800001 11.3C 26.03452 11.745014 29.638043 13.052174 34 15.000001C 38.361958 16.947827 41.965481 18.254987 44.200001 18.700001C 48.03708 19.546186 51.639401 19.983851 54.900002 20.000001L 55 20L 58 20"></path></g></g></g><g id="g-root-boxe_v6pwx91720avb-stroke" data-item-order="0" data-item-id="boxe_v6pwx91720avb" data-item-class="Icon Stroke" data-item-index="none" data-renderer-id="0" transform="translate(471, 165)"><g id="boxe_v6pwx91720avb-stroke" fill="none" stroke-linecap="round" stroke-linejoin="round" stroke-miterlimit="4" stroke="#FFE60A" stroke-width="2"><g><path d="M 22.813751 13.75C 22.813751 15.47589 24.21286 16.875 25.938751 16.875C 27.66464 16.875 29.063751 15.47589 29.063751 13.75C 29.063751 12.02411 27.66464 10.625 25.938751 10.625C 24.21286 10.625 22.813751 12.02411 22.813751 13.75ZM 29.6875 23.125L 29.6875 19.375L 33.016251 19.375C 34.974789 19.375 36.5625 20.962711 36.5625 22.921249C 36.565063 24.177452 35.702076 25.269943 34.479416 25.55831C 33.25676 25.846678 31.996546 25.254953 31.437502 24.130001L 30.9375 23.129999ZM 30.9375 23.125L 33.4375 23.125M 29.6875 19.375L 22.1875 19.375C 21.433889 19.374823 20.753407 19.825851 20.459999 20.52L 13.585 36.77C 13.181832 37.724072 13.628428 38.824333 14.5825 39.227501C 15.536572 39.630669 16.636833 39.184071 17.040001 38.230003L 19.512501 32.38625L 22.205 33.366249C 22.944141 33.635849 23.436354 34.33823 23.4375 35.125L 23.4375 37.5C 23.4375 38.535534 24.276966 39.375 25.3125 39.375C 26.348034 39.375 27.1875 38.535534 27.1875 37.5L 27.1875 35.125C 27.183458 32.761009 25.705257 30.650503 23.485001 29.838751L 20.975 28.9275L 23.43 23.125L 29.6875 23.125"></path></g></g></g><g id="g-root-tx_unterwei_18hjy7h1720cg6-stroke" data-item-order="0" data-item-id="tx_unterwei_18hjy7h1720cg6" data-item-class="Label Stroke" data-item-index="none" data-renderer-id="0" transform="translate(507, 168)"></g><g id="g-root-tx_genehmig_1czvfu5171rx8r-stroke" data-item-order="0" data-item-id="tx_genehmig_1czvfu5171rx8r" data-item-class="Label Stroke" data-item-index="none" data-renderer-id="0" transform="translate(15, 219)"></g><g id="g-root-cu_1lwrhf1171i39l-stroke" data-item-order="0" data-item-id="cu_1lwrhf1171i39l" data-item-class="Curve Stroke ColorFillBlack ColorStrokeBlack" data-item-index="none" data-renderer-id="0" transform="translate(153, 207)"><g id="cu_1lwrhf1171i39l-stroke" fill="none" stroke-linecap="round" stroke-linejoin="round" stroke-miterlimit="4" stroke="#666666" stroke-width="2" stroke-dasharray="5.0, 7.0"><g><path d="M 28 10L 28 22L 28 34L 19 34L 10 34"></path></g></g></g><g id="g-root-cu_1hhkgdp171i0w4-stroke" data-item-order="0" data-item-id="cu_1hhkgdp171i0w4" data-item-class="Curve Stroke ColorFillBlack ColorStrokeBlack" data-item-index="none" data-renderer-id="0" transform="translate(153, 207)"><g id="cu_1hhkgdp171i0w4-stroke" fill="none" stroke-linecap="round" stroke-linejoin="round" stroke-miterlimit="4" stroke="#666666" stroke-width="2" stroke-dasharray="5.0, 7.0"><g><path d="M 28 10L 28 17.5L 28 58C 27.999999 64.627415 22.627416 69.999998 16 69.999998L 15.9 70L 10 70"></path></g></g></g><g id="g-root-cu_73xt9171i1vo-stroke" data-item-order="0" data-item-id="cu_73xt9171i1vo" data-item-class="Curve Stroke ColorFillBlack ColorStrokeBlack" data-item-index="none" data-renderer-id="0" transform="translate(483, 207)"><g id="cu_73xt9171i1vo-stroke" fill="none" stroke-linecap="round" stroke-linejoin="round" stroke-miterlimit="4" stroke="#666666" stroke-width="2" stroke-dasharray="5.0, 7.0"><g><path d="M 10 10L 10 22L 10 34L 19 34L 28 34"></path></g></g></g><g id="g-root-cu_1qckzjh171i2hb-stroke" data-item-order="0" data-item-id="cu_1qckzjh171i2hb" data-item-class="Curve Stroke ColorFillBlack ColorStrokeBlack" data-item-index="none" data-renderer-id="0" transform="translate(483, 207)"><g id="cu_1qckzjh171i2hb-stroke" fill="none" stroke-linecap="round" stroke-linejoin="round" stroke-miterlimit="4" stroke="#666666" stroke-width="2" stroke-dasharray="5.0, 7.0"><g><path d="M 10 10L 10 17.5L 10 58C 10.000002 64.627417 15.372585 70 22.000002 69.999999L 22.1 70L 28 70"></path></g></g></g><g id="g-root-cu_1448ir1171i2of-stroke" data-item-order="0" data-item-id="cu_1448ir1171i2of" data-item-class="Curve Stroke ColorFillBlack ColorStrokeBlack" data-item-index="none" data-renderer-id="0" transform="translate(327, 228)"><g id="cu_1448ir1171i2of-stroke" fill="none" stroke-linecap="round" stroke-linejoin="round" stroke-miterlimit="4" stroke="#666666" stroke-width="2" stroke-dasharray="5.0, 7.0"><g><path d="M 10 10L 10 47.5L 10 85"></path></g></g></g><g id="g-root-tx_dokument_5uwh9171rv29-stroke" data-item-order="0" data-item-id="tx_dokument_5uwh9171rv29" data-item-class="Label Stroke" data-item-index="none" data-renderer-id="0" transform="translate(507, 219)"></g><g id="g-root-tx_tracking_18koest171ruv8-stroke" data-item-order="0" data-item-id="tx_tracking_18koest171ruv8" data-item-class="Label Stroke" data-item-index="none" data-renderer-id="0" transform="translate(63, 255)"></g><g id="g-root-tx_schulung_1qbby7h171rvnu-stroke" data-item-order="0" data-item-id="tx_schulung_1qbby7h171rvnu" data-item-class="Label Stroke" data-item-index="none" data-renderer-id="0" transform="translate(507, 255)"></g><g id="g-root-hier_1hkvh171yvwj-stroke" data-item-order="0" data-item-id="hier_1hkvh171yvwj" data-item-class="Icon Stroke" data-item-index="none" data-renderer-id="0" transform="translate(153, 15)"><g id="hier_1hkvh171yvwj-stroke" fill="none" stroke-linecap="round" stroke-linejoin="round" stroke-miterlimit="4" stroke="#4F92FF" stroke-width="2"><g><path d="M 36.508751 15.625C 36.743187 15.859366 36.874928 16.177258 36.875 16.508749L 36.875 38.125C 36.875 38.815353 36.315353 39.375 35.625 39.375L 14.375 39.375C 13.684644 39.375 13.125 38.815353 13.125 38.125L 13.125 11.875C 13.125 11.184644 13.684644 10.625 14.375 10.625L 30.991249 10.625C 31.322386 10.624408 31.640224 10.75523 31.875 10.98875ZM 18.125 30.623751L 20.625 30.623751C 20.625 30.623751 21.875 30.623751 21.875 31.873751L 21.875 34.373749C 21.875 34.373749 21.875 35.623749 20.625 35.623749L 18.125 35.623749C 18.125 35.623749 16.875 35.623749 16.875 34.373749L 16.875 31.873751C 16.875 31.873751 16.875 30.623751 18.125 30.623751M 28.125 30.623751L 30.625 30.623751C 30.625 30.623751 31.875 30.623751 31.875 31.873751L 31.875 34.373749C 31.875 34.373749 31.875 35.623749 30.625 35.623749L 28.125 35.623749C 28.125 35.623749 26.875 35.623749 26.875 34.373749L 26.875 31.873751C 26.875 31.873751 26.875 30.623751 28.125 30.623751M 23.125 18.123751L 25.625 18.123751C 25.625 18.123751 26.875 18.123751 26.875 19.373751L 26.875 21.873751C 26.875 21.873751 26.875 23.123751 25.625 23.123751L 23.125 23.123751C 23.125 23.123751 21.875 23.123751 21.875 21.873751L 21.875 19.373751C 21.875 19.373751 21.875 18.123751 23.125 18.123751M 29.375 30.623751L 29.375 26.873749L 19.375 26.873749L 19.375 30.623751M 24.375 23.123749L 24.375 26.873749"></path></g></g></g><g id="g-root-educ_1q9giy5171rwnf-stroke" data-item-order="0" data-item-id="educ_1q9giy5171rwnf" data-item-class="Icon Stroke" data-item-index="none" data-renderer-id="0" transform="translate(213, 315)"><g id="educ_1q9giy5171rwnf-stroke" fill="none" stroke-linecap="round" stroke-linejoin="round" stroke-miterlimit="4" stroke="#FD6A65" stroke-width="2"><g><path d="M 21.875 30L 14.925 30C 12.550176 30 10.625 28.074823 10.625 25.699999L 10.625 14.45C 10.60562 12.571881 11.978661 10.969111 13.837501 10.7C 15.507 10.601328 17.023207 11.669319 17.492516 13.274534C 17.961824 14.879749 17.25972 16.596298 15.8 17.4125C 16.755165 19.842854 16.755165 22.544647 15.8 24.975C 17.072729 22.485926 19.567923 20.856512 22.358669 20.692047C 25.149418 20.527584 27.818724 21.852644 29.375 24.174999M 31.412498 26.3375L 24.475 29.225C 24.414444 29.250229 24.374998 29.309399 24.374998 29.374998C 24.374998 29.440599 24.414444 29.499767 24.474998 29.524998L 31.412498 32.412498C 31.70949 32.530781 32.040512 32.530781 32.337502 32.412498L 39.375 29.375L 32.337502 26.3375C 32.040512 26.219219 31.70949 26.219219 31.412498 26.3375ZM 26.875 33.125L 26.875 36.25C 28.429916 37.028061 30.136864 37.4548 31.875 37.499996C 33.613132 37.4548 35.320084 37.028061 36.874996 36.249996L 36.875 33.125M 39.375 29.375L 39.375 35.625M 39.375 38.125L 39.375 39.375"></path></g></g></g><g id="g-root-tx_prfungse_4jszcd171rv9m-stroke" data-item-order="0" data-item-id="tx_prfungse_4jszcd171rv9m" data-item-class="Label Stroke" data-item-index="none" data-renderer-id="0" transform="translate(249, 318)"></g><g id="g-root-cu_18lxg4t171i1ou-stroke" data-item-order="0" data-item-id="cu_18lxg4t171i1ou" data-item-class="Curve Stroke ColorFillBlack ColorStrokeBlack" data-item-index="none" data-renderer-id="0" transform="translate(225, 357)"><g id="cu_18lxg4t171i1ou-stroke" fill="none" stroke-linecap="round" stroke-linejoin="round" stroke-miterlimit="4" stroke="#666666" stroke-width="2" stroke-dasharray="5.0, 7.0"><g><path d="M 10 10L 10 22L 10 34L 19 34L 28 34"></path></g></g></g><g id="g-root-cu_1463y0d171i2h5-stroke" data-item-order="0" data-item-id="cu_1463y0d171i2h5" data-item-class="Curve Stroke ColorFillBlack ColorStrokeBlack" data-item-index="none" data-renderer-id="0" transform="translate(225, 357)"><g id="cu_1463y0d171i2h5-stroke" fill="none" stroke-linecap="round" stroke-linejoin="round" stroke-miterlimit="4" stroke="#666666" stroke-width="2" stroke-dasharray="5.0, 7.0"><g><path d="M 10 10L 10 17.5L 10 58C 10.000002 64.627417 15.372585 70 22.000002 69.999999L 22.1 70L 28 70"></path></g></g></g><g id="g-root-tx_erfassun_mdkw6l171rx8t-stroke" data-item-order="0" data-item-id="tx_erfassun_mdkw6l171rx8t" data-item-class="Label Stroke" data-item-index="none" data-renderer-id="0" transform="translate(249, 369)"></g><g id="g-root-tx_berichts_4golwt171yya2-stroke" data-item-order="0" data-item-id="tx_berichts_4golwt171yya2" data-item-class="Label Stroke" data-item-index="none" data-renderer-id="0" transform="translate(15, 18)"></g><g id="g-root-tx_protokol_v7ch65171rxfq-stroke" data-item-order="0" data-item-id="tx_protokol_v7ch65171rxfq" data-item-class="Label Stroke" data-item-index="none" data-renderer-id="0" transform="translate(3, 105)"></g></g></g></svg>