<?xml version="1.0" encoding="utf-8" standalone="yes"?>
<!DOCTYPE svg PUBLIC "-//W3C//DTD SVG 1.1//EN" "http://www.w3.org/Graphics/SVG/1.1/DTD/svg11.dtd">
<svg width="732" height="444" viewBox="0 0 732 444" style="fill:none;stroke:none;fill-rule:evenodd;clip-rule:evenodd;stroke-linecap:round;stroke-linejoin:round;stroke-miterlimit:1.5;" version="1.1" xmlns="http://www.w3.org/2000/svg" xmlns:xlink="http://www.w3.org/1999/xlink"><style id="fontImports">@import url("https://fonts.googleapis.com/css2?family=Roboto:wght@400;700&amp;display=block");</style><g id="items" style="isolation: isolate"><g id="blend" style="mix-blend-mode:screen"><g id="g-root-3.Vector_sy_qwjgz11861hq9-fill" data-item-order="-122556" data-item-id="3.Vector_sy_qwjgz11861hq9" data-item-class="Part Indexed Fill Stroke" data-item-index="3" data-renderer-id="0" transform="translate(187.7030029296875, 57.06298828125)"><g id="3.Vector_sy_qwjgz11861hq9-fill" stroke="none" fill="url(#gradient-17afe2-38714328)"><g><path d="M 110.974997 70.788996L 116.622997 88.936996L 98.081997 93.118996L 101.669997 86.903996L 79.046997 73.842996C 68.091997 87.338996 48.651997 91.262996 33.118997 82.294996C 15.899997 72.353996 9.999997 50.336996 19.941997 33.117996C 29.882997 15.899996 51.899997 9.999996 69.118997 19.940996C 84.630997 28.896996 90.955997 47.654996 84.787997 63.874996L 107.421997 76.941996L 110.974997 70.788996Z"></path></g></g></g><g id="g-root-2.Vector_sy_vccz3h1861gy0-fill" data-item-order="-122554" data-item-id="2.Vector_sy_vccz3h1861gy0" data-item-class="Part Indexed Fill Stroke" data-item-index="2" data-renderer-id="0" transform="translate(338, 274.29901123046875)"><g id="2.Vector_sy_vccz3h1861gy0-fill" stroke="none" fill="url(#gradient-4681e2-392446692)"><g><path d="M 58.893 23.965989L 46 9.999989L 33.108 23.965989L 40.284 23.965989L 40.284 50.151989C 23.118 52.890989 10 67.763989 10 85.700989C 10 105.582989 26.118 121.700989 46 121.700989C 65.882 121.700989 82 105.582989 82 85.700989C 82 67.788989 68.918 52.931989 51.788 50.163989L 51.788 23.965989L 58.893 23.965989Z"></path></g></g></g><g id="g-root-1.Vector_sy_zrk04t1861jbj-fill" data-item-order="-122552" data-item-id="1.Vector_sy_zrk04t1861jbj" data-item-class="Part Indexed Indexed_1 Fill Stroke" data-item-index="1" data-renderer-id="0" transform="translate(453.67401123046875, 57.06298828125)"><g id="1.Vector_sy_zrk04t1861jbj-fill" stroke="none" fill="url(#gradient-3bc382-226276808)"><g><path d="M 28.540989 93.119996L 9.999989 88.936996L 15.647989 70.788996L 19.235989 77.003996L 41.859989 63.941996C 35.648989 47.706996 41.969989 28.909996 57.503989 19.940996C 74.722989 9.999996 96.739989 15.899996 106.680989 33.117996C 116.621989 50.336996 110.722989 72.353996 93.503989 82.294996C 77.991989 91.250996 58.584989 87.349996 47.621989 73.898996L 24.987989 86.965996L 28.540989 93.119996Z"></path></g></g></g><g id="g-root-0.Vector_sy_18n70dp1861iiu-fill" data-item-order="-122550" data-item-id="0.Vector_sy_18n70dp1861iiu" data-item-class="Part Indexed_0 Fill Stroke" data-item-index="0" data-renderer-id="0" transform="translate(302, 109.9959716796875)"><defs><linearGradient id="gradient-17afe2-38714328" x2="0" y2="1"><stop offset="0" stop-color="#1AC6FF"></stop><stop offset="1" stop-color="#1498c4"></stop></linearGradient><linearGradient id="gradient-4681e2-392446692" x2="0" y2="1"><stop offset="0" stop-color="#4F92FF"></stop><stop offset="1" stop-color="#3d70c4"></stop></linearGradient><linearGradient id="gradient-3bc382-226276808" x2="0" y2="1"><stop offset="0" stop-color="#44E095"></stop><stop offset="1" stop-color="#32a56e"></stop></linearGradient><linearGradient id="gradient-92c031-119406507" x2="0" y2="1"><stop offset="0" stop-color="#A8DD38"></stop><stop offset="1" stop-color="#7ba229"></stop></linearGradient></defs><g id="0.Vector_sy_18n70dp1861iiu-fill" stroke="none" fill="url(#gradient-92c031-119406507)"><g><path d="M 154 81.999998C 154 42.235998 121.765 9.999998 82 9.999998C 42.236 9.999998 10 42.235998 10 81.999998C 10 121.764998 42.236 153.999998 82 153.999998C 121.764 153.999998 154 121.764998 154 81.999998Z"></path></g></g></g><g id="g-root-tx_umfassen_1cuwfjh185ge8d-fill" data-item-order="0" data-item-id="tx_umfassen_1cuwfjh185ge8d" data-item-class="Label Stroke Title ColorStrokeGray" data-item-index="none" data-renderer-id="0" transform="translate(242, 2)"><g id="tx_umfassen_1cuwfjh185ge8d-fill" stroke="none" fill="#FFFFFF"><g><text style="font: 20px Roboto, sans-serif; white-space: pre;"><tspan x="14.8" y="33.5" dominant-baseline="ideographic">Umfassende Berufsberatung</tspan></text></g></g></g><g id="g-root-tx_bildungs_qwjgz11861hqa-fill" data-item-order="0" data-item-id="tx_bildungs_qwjgz11861hqa" data-item-class="Label Stroke Indexed ColorStrokeGray" data-item-index="3" data-renderer-id="0" transform="translate(2, 86)"><g id="tx_bildungs_qwjgz11861hqa-fill" stroke="none" fill="#FFFFFF"><g><text style="font: 20px Roboto, sans-serif; white-space: pre;"><tspan x="12.05" y="33.5" dominant-baseline="ideographic">Bildungsressourcen</tspan></text></g></g></g><g id="g-root-play_4kg8tp185hv61-fill" data-item-order="0" data-item-id="play_4kg8tp185hv61" data-item-class="Icon Stroke Indexed InsideFill InsideColorFill ColorStrokeGray" data-item-index="3" data-renderer-id="0" transform="translate(204, 74)"></g><g id="g-root-2_qrjrfx185hssg-fill" data-item-order="0" data-item-id="2_qrjrfx185hssg" data-item-class="Icon Stroke Indexed Indexed_1 InsideFill InsideColorFill ColorStrokeGray" data-item-index="1" data-renderer-id="0" transform="translate(496, 74)"></g><g id="g-root-tx_berufber_1q5qgtp185gft8-fill" data-item-order="0" data-item-id="tx_berufber_1q5qgtp185gft8" data-item-class="Label Stroke Indexed Indexed_1 ColorStrokeGray" data-item-index="1" data-renderer-id="0" transform="translate(566, 86)"><g id="tx_berufber_1q5qgtp185gft8-fill" stroke="none" fill="#FFFFFF"><g><text style="font: 20px Roboto, sans-serif; white-space: pre;"><tspan x="12" y="33.5" dominant-baseline="ideographic">Beruf Übersicht</tspan></text></g></g></g><g id="g-root-boar_qqxact185j9c5-fill" data-item-order="0" data-item-id="boar_qqxact185j9c5" data-item-class="Icon Stroke InsideFill InsideColorFill" data-item-index="none" data-renderer-id="0" transform="translate(338, 145.9959716796875)"></g><g id="g-root-docu_18i7aul185htl3-fill" data-item-order="0" data-item-id="docu_18i7aul185htl3" data-item-class="Icon Stroke Indexed InsideFill InsideColorFill ColorStrokeGray" data-item-index="2" data-renderer-id="0" transform="translate(350, 326)"></g><g id="g-root-tx_berufste_4g2x7x185geff-fill" data-item-order="0" data-item-id="tx_berufste_4g2x7x185geff" data-item-class="Label Stroke Indexed ColorStrokeGray" data-item-index="2" data-renderer-id="0" transform="translate(326, 398)"><g id="tx_berufste_4g2x7x185geff-fill" stroke="none" fill="#FFFFFF"><g><text style="font: 20px Roboto, sans-serif; white-space: pre;"><tspan x="11.96" y="33.5" dominant-baseline="ideographic">Berufstest</tspan></text></g></g></g><g id="g-root-3.Vector_sy_qwjgz11861hq9-stroke" data-item-order="-122556" data-item-id="3.Vector_sy_qwjgz11861hq9" data-item-class="Part Indexed Fill Stroke" data-item-index="3" data-renderer-id="0" transform="translate(187.7030029296875, 57.06298828125)"><g id="3.Vector_sy_qwjgz11861hq9-stroke" fill="none" stroke-linecap="round" stroke-linejoin="round" stroke-miterlimit="4" stroke="#ffffff" stroke-width="2"><g><path d="M 110.974997 70.788996L 116.622997 88.936996L 98.081997 93.118996L 101.669997 86.903996L 79.046997 73.842996C 68.091997 87.338996 48.651997 91.262996 33.118997 82.294996C 15.899997 72.353996 9.999997 50.336996 19.941997 33.117996C 29.882997 15.899996 51.899997 9.999996 69.118997 19.940996C 84.630997 28.896996 90.955997 47.654996 84.787997 63.874996L 107.421997 76.941996L 110.974997 70.788996Z"></path></g></g></g><g id="g-root-2.Vector_sy_vccz3h1861gy0-stroke" data-item-order="-122554" data-item-id="2.Vector_sy_vccz3h1861gy0" data-item-class="Part Indexed Fill Stroke" data-item-index="2" data-renderer-id="0" transform="translate(338, 274.29901123046875)"><g id="2.Vector_sy_vccz3h1861gy0-stroke" fill="none" stroke-linecap="round" stroke-linejoin="round" stroke-miterlimit="4" stroke="#ffffff" stroke-width="2"><g><path d="M 58.893 23.965989L 46 9.999989L 33.108 23.965989L 40.284 23.965989L 40.284 50.151989C 23.118 52.890989 10 67.763989 10 85.700989C 10 105.582989 26.118 121.700989 46 121.700989C 65.882 121.700989 82 105.582989 82 85.700989C 82 67.788989 68.918 52.931989 51.788 50.163989L 51.788 23.965989L 58.893 23.965989Z"></path></g></g></g><g id="g-root-1.Vector_sy_zrk04t1861jbj-stroke" data-item-order="-122552" data-item-id="1.Vector_sy_zrk04t1861jbj" data-item-class="Part Indexed Indexed_1 Fill Stroke" data-item-index="1" data-renderer-id="0" transform="translate(453.67401123046875, 57.06298828125)"><g id="1.Vector_sy_zrk04t1861jbj-stroke" fill="none" stroke-linecap="round" stroke-linejoin="round" stroke-miterlimit="4" stroke="#ffffff" stroke-width="2"><g><path d="M 28.540989 93.119996L 9.999989 88.936996L 15.647989 70.788996L 19.235989 77.003996L 41.859989 63.941996C 35.648989 47.706996 41.969989 28.909996 57.503989 19.940996C 74.722989 9.999996 96.739989 15.899996 106.680989 33.117996C 116.621989 50.336996 110.722989 72.353996 93.503989 82.294996C 77.991989 91.250996 58.584989 87.349996 47.621989 73.898996L 24.987989 86.965996L 28.540989 93.119996Z"></path></g></g></g><g id="g-root-0.Vector_sy_18n70dp1861iiu-stroke" data-item-order="-122550" data-item-id="0.Vector_sy_18n70dp1861iiu" data-item-class="Part Indexed_0 Fill Stroke" data-item-index="0" data-renderer-id="0" transform="translate(302, 109.9959716796875)"><g id="0.Vector_sy_18n70dp1861iiu-stroke" fill="none" stroke-linecap="round" stroke-linejoin="round" stroke-miterlimit="4" stroke="#ffffff" stroke-width="2"><g><path d="M 154 81.999998C 154 42.235998 121.765 9.999998 82 9.999998C 42.236 9.999998 10 42.235998 10 81.999998C 10 121.764998 42.236 153.999998 82 153.999998C 121.764 153.999998 154 121.764998 154 81.999998Z"></path></g></g></g><g id="g-root-tx_umfassen_1cuwfjh185ge8d-stroke" data-item-order="0" data-item-id="tx_umfassen_1cuwfjh185ge8d" data-item-class="Label Stroke Title ColorStrokeGray" data-item-index="none" data-renderer-id="0" transform="translate(242, 2)"></g><g id="g-root-tx_bildungs_qwjgz11861hqa-stroke" data-item-order="0" data-item-id="tx_bildungs_qwjgz11861hqa" data-item-class="Label Stroke Indexed ColorStrokeGray" data-item-index="3" data-renderer-id="0" transform="translate(2, 86)"></g><g id="g-root-play_4kg8tp185hv61-stroke" data-item-order="0" data-item-id="play_4kg8tp185hv61" data-item-class="Icon Stroke Indexed InsideFill InsideColorFill ColorStrokeGray" data-item-index="3" data-renderer-id="0" transform="translate(204, 74)"><g id="play_4kg8tp185hv61-stroke" fill="none" stroke-linecap="round" stroke-linejoin="round" stroke-miterlimit="4" stroke="#FFFFFF" stroke-width="2"><g><path d="M 53 11L 19 11C 16.790861 11 15 12.790861 15 15C 15 17.209139 16.790861 19 19 19L 51 19C 52.104568 19 53 19.895432 53 21L 53 55C 53 56.104568 52.104568 57 51 57L 19 57C 16.790861 57 15 55.209141 15 53L 15 15M 19 15L 51 15M 47 30C 47 28.343145 45.656857 27 44 27L 26 27C 24.343147 27 23 28.343145 23 30L 23 48C 23 49.656857 24.343147 51 26 51L 44 51C 45.656857 51 47 49.656857 47 48ZM 31 39L 31 35.360001C 30.999901 35.050213 31.166418 34.764313 31.435923 34.611553C 31.705425 34.458794 32.036259 34.462784 32.302002 34.622002L 38.370003 38.262001C 38.629562 38.417294 38.78846 38.697525 38.78846 39C 38.78846 39.302471 38.629562 39.582703 38.369999 39.737999L 32.302002 43.377998C 32.036259 43.537216 31.705425 43.541206 31.435923 43.388447C 31.166418 43.235687 30.999901 42.949787 31 42.639999Z"></path></g></g></g><g id="g-root-2_qrjrfx185hssg-stroke" data-item-order="0" data-item-id="2_qrjrfx185hssg" data-item-class="Icon Stroke Indexed Indexed_1 InsideFill InsideColorFill ColorStrokeGray" data-item-index="1" data-renderer-id="0" transform="translate(496, 74)"><g id="2_qrjrfx185hssg-stroke" fill="none" stroke-linecap="round" stroke-linejoin="round" stroke-miterlimit="4" stroke="#FFFFFF" stroke-width="2"><g><path d="M 11.714286 34C 11.714287 46.308064 21.69194 56.285713 34 56.285713C 46.308064 56.285713 56.285713 46.308064 56.285713 34C 56.285713 21.69194 46.308064 11.714287 34 11.714287C 21.69194 11.714287 11.714287 21.69194 11.714287 34M 52.78857 22L 39.074284 22C 35.287189 22 32.217144 25.070047 32.217144 28.857143C 32.217144 32.644238 35.287189 35.714287 39.074284 35.714287C 40.967834 35.714287 42.502857 37.24931 42.502857 39.142857L 42.502857 54.57143M 11.988571 37.428574L 20.285715 37.428574C 24.072809 37.428574 27.142857 40.498619 27.142857 44.285713L 27.142857 55.222855"></path></g></g></g><g id="g-root-tx_berufber_1q5qgtp185gft8-stroke" data-item-order="0" data-item-id="tx_berufber_1q5qgtp185gft8" data-item-class="Label Stroke Indexed Indexed_1 ColorStrokeGray" data-item-index="1" data-renderer-id="0" transform="translate(566, 86)"></g><g id="g-root-boar_qqxact185j9c5-stroke" data-item-order="0" data-item-id="boar_qqxact185j9c5" data-item-class="Icon Stroke InsideFill InsideColorFill" data-item-index="none" data-renderer-id="0" transform="translate(338, 145.9959716796875)"><g id="boar_qqxact185j9c5-stroke" fill="none" stroke-linecap="round" stroke-linejoin="round" stroke-miterlimit="4" stroke="#FFFFFF" stroke-width="2"><g><path d="M 46 38.433998L 46 47.433998M 46 11.566L 46 14.434M 46 23.434L 46 29.434M 36.733002 38.142998C 36.992645 38.337734 37.308445 38.443001 37.633003 38.443001L 58 38.443001L 58 29.443001L 37.620998 29.443001C 37.296444 29.443001 36.980644 29.548267 36.721001 29.743L 32.635002 32.743C 32.250172 33.025612 32.022873 33.474545 32.022873 33.952C 32.022873 34.429455 32.250172 34.878387 32.635002 35.160999ZM 56.766998 23.143C 56.507355 23.337732 56.191555 23.443001 55.866997 23.443001L 35.5 23.443001L 35.5 14.443L 55.879002 14.443C 56.203556 14.443 56.519356 14.548267 56.778999 14.743L 60.864998 17.743C 61.249832 18.025612 61.477127 18.474546 61.477127 18.952C 61.477127 19.429455 61.249832 19.878387 60.864998 20.160999ZM 79 80.434006C 78.945313 63.416977 65.959671 49.231907 49.013664 47.67794C 32.06765 46.12397 16.718712 57.710732 13.57 74.434006L 30.969999 74.434006C 33.253273 74.434631 35.442795 75.342163 37.056999 76.957001L 40.276001 80.173004C 40.357002 80.253998 40.413998 80.350006 40.491997 80.434006M 64.300003 80.434006L 61.465004 76.18C 59.868397 73.786324 57.181297 72.34877 54.304001 72.348999L 53.062 72.348999C 50.676338 72.475075 48.415909 71.274033 47.185188 69.22644C 45.954468 67.178848 45.954468 64.619156 47.185188 62.571564C 48.415909 60.523979 50.676338 59.322929 53.062004 59.449005L 71.455002 59.448997M 13.555 74.535995C 13.194749 76.481552 13.009011 78.455391 13 80.433998"></path></g></g></g><g id="g-root-docu_18i7aul185htl3-stroke" data-item-order="0" data-item-id="docu_18i7aul185htl3" data-item-class="Icon Stroke Indexed InsideFill InsideColorFill ColorStrokeGray" data-item-index="2" data-renderer-id="0" transform="translate(350, 326)"><g id="docu_18i7aul185htl3-stroke" fill="none" stroke-linecap="round" stroke-linejoin="round" stroke-miterlimit="4" stroke="#FFFFFF" stroke-width="2"><g><path d="M 21.880001 53.444L 14.566 53.444C 13.416143 53.444 12.484 52.511856 12.484 51.362L 12.484 13.082C 12.484 11.932143 13.416143 11 14.566 11L 42.377998 11C 43.527859 11 44.459999 11.932143 44.459999 13.082L 44.459999 18.694M 30.768 30.07C 30.76754 32.660542 32.867458 34.760834 35.458 34.760834C 38.048538 34.760834 40.14846 32.660542 40.148003 30.07C 40.14846 27.47946 38.048538 25.379166 35.458 25.379166C 32.867458 25.379166 30.76754 27.47946 30.768 30.07M 45.484001 44.68C 42.566002 34.958 28.049999 35.456001 25.139999 45.155998M 19.026001 36.795998C 19.026001 45.790508 26.31749 53.081997 35.312 53.081997C 44.306507 53.081997 51.598 45.790508 51.598 36.795998C 51.598 27.801491 44.306507 20.51 35.312 20.51C 26.31749 20.51 19.026001 27.801491 19.026001 36.795998M 46.826 48.312L 55.515999 57M 35.312 41.393997L 35.312 43.992001M 31.986 26.93C 33.356003 30.07 36.827999 30.972 40.148003 30.07"></path></g></g></g><g id="g-root-tx_berufste_4g2x7x185geff-stroke" data-item-order="0" data-item-id="tx_berufste_4g2x7x185geff" data-item-class="Label Stroke Indexed ColorStrokeGray" data-item-index="2" data-renderer-id="0" transform="translate(326, 398)"></g></g></g></svg>