<?xml version="1.0" encoding="utf-8" standalone="yes"?>
<!DOCTYPE svg PUBLIC "-//W3C//DTD SVG 1.1//EN" "http://www.w3.org/Graphics/SVG/1.1/DTD/svg11.dtd">
<svg width="578" height="361" viewBox="0 0 578 361" style="fill:none;stroke:none;fill-rule:evenodd;clip-rule:evenodd;stroke-linecap:round;stroke-linejoin:round;stroke-miterlimit:1.5;" version="1.1" xmlns="http://www.w3.org/2000/svg" xmlns:xlink="http://www.w3.org/1999/xlink"><style id="fontImports">@import url("https://fonts.googleapis.com/css2?family=Roboto:wght@400;700&amp;display=block");</style><g id="items" style="isolation: isolate"><g id="blend" style="mix-blend-mode:screen"><g id="g-root-4.cu_sy_1uqj2e515nppmp-fill" data-item-order="-92731" data-item-id="4.cu_sy_1uqj2e515nppmp" data-item-class="Part Indexed Stroke ColorFillBlack ColorStrokeGray" data-item-index="4" data-renderer-id="0" transform="translate(110.95700073242188, 171.75)"></g><g id="g-root-3.Exclude_sy_58ijh15npp1k-fill" data-item-order="-92730" data-item-id="3.Exclude_sy_58ijh15npp1k" data-item-class="Part Indexed Fill Stroke ColorFillBlack" data-item-index="3" data-renderer-id="0" transform="translate(231.5980224609375, 185)"><g id="3.Exclude_sy_58ijh15npp1k-fill" stroke="none" fill="url(#gradient-4e4e4e-128737877)"><g><path d="M 57.401993 10C 49.928993 10 43.652993 15.122 41.893993 22.047L 10.591993 124.12C 9.999993 126.049 11.441993 128 13.459993 128L 101.343993 128C 103.360993 128 104.803993 126.049 104.211993 124.12L 72.911993 22.054C 71.153993 15.126 64.876993 10 57.401993 10ZM 57.401993 33C 61.267993 33 64.401993 29.866 64.401993 26C 64.401993 22.134 61.267993 19 57.401993 19C 53.535993 19 50.401993 22.134 50.401993 26C 50.401993 29.866 53.535993 33 57.401993 33Z"></path></g></g></g><g id="g-root-2.right-bucket_sy_4l20nx15npo9b-fill" data-item-order="-92728" data-item-id="2.right-bucket_sy_4l20nx15npo9b" data-item-class="Part Indexed Fill Stroke" data-item-index="2" data-renderer-id="0" transform="translate(327, 135)"><g id="2.right-bucket_sy_4l20nx15npo9b-fill" stroke="none" fill="url(#gradient-92c031-119406507)"><g><path d="M 11.081 15.729C 10.338 14.904 10 13.826 10 12.716L 10 12.716C 10 11.216 11.216 10 12.716 10L 235.284 10C 236.784 10 238 11.216 238 12.716L 238 12.716C 238 13.826 237.662 14.904 236.919 15.729C 231.551 21.692 204.717 46 124 46C 43.283 46 16.449 21.692 11.081 15.729Z"></path></g></g></g><g id="g-root-1.left-bucket_sy_4l20nx15npo9a-fill" data-item-order="-92726" data-item-id="1.left-bucket_sy_4l20nx15npo9a" data-item-class="Part Indexed Indexed_1 Fill Stroke" data-item-index="1" data-renderer-id="0" transform="translate(3, 135)"><defs><linearGradient id="gradient-4e4e4e-128737877" x2="0" y2="1"><stop offset="0" stop-color="#666666"></stop><stop offset="1" stop-color="#353535"></stop></linearGradient><linearGradient id="gradient-92c031-119406507" x2="0" y2="1"><stop offset="0" stop-color="#A8DD38"></stop><stop offset="1" stop-color="#7ba229"></stop></linearGradient><linearGradient id="gradient-17afe2-38714328" x2="0" y2="1"><stop offset="0" stop-color="#1AC6FF"></stop><stop offset="1" stop-color="#1498c4"></stop></linearGradient></defs><g id="1.left-bucket_sy_4l20nx15npo9a-fill" stroke="none" fill="url(#gradient-17afe2-38714328)"><g><path d="M 11.0812 15.729C 10.3384 14.904 10 13.826 10 12.716L 10 12.716C 10 11.216 11.2158 10 12.7157 10L 235.284 10C 236.784 10 238 11.216 238 12.716L 238 12.716C 238 13.826 237.662 14.904 236.919 15.729C 231.551 21.692 204.717 46 124 46C 43.2826 46 16.4488 21.692 11.0812 15.729Z"></path></g></g></g><g id="g-root-lock_qu0yjh15nwp3h-fill" data-item-order="0" data-item-id="lock_qu0yjh15nwp3h" data-item-class="Icon Stroke Indexed ColorStrokeGray" data-item-index="2" data-renderer-id="0" transform="translate(15, 3)"></g><g id="g-root-tx_lokaleda_hxrh7h15npouj-fill" data-item-order="0" data-item-id="tx_lokaleda_hxrh7h15npouj" data-item-class="Label Stroke Indexed ColorStrokeGray" data-item-index="2" data-renderer-id="0" transform="translate(75, 3)"><g id="tx_lokaleda_hxrh7h15npouj-fill" stroke="none" fill="#FFFFFF"><g><text style="font: 20px Roboto, sans-serif; white-space: pre;"><tspan x="12" y="33.5" dominant-baseline="ideographic">Lokale </tspan><tspan x="12" y="57.5" dominant-baseline="ideographic">Datensicherheit</tspan></text></g></g></g><g id="g-root-2_18mjx7h15nwowf-fill" data-item-order="0" data-item-id="2_18mjx7h15nwowf" data-item-class="Icon Stroke Indexed ColorStrokeGray" data-item-index="5" data-renderer-id="0" transform="translate(339, 3)"></g><g id="g-root-tx_clouddat_1lwrhel15nppfp-fill" data-item-order="0" data-item-id="tx_clouddat_1lwrhel15nppfp" data-item-class="Label Stroke Indexed ColorStrokeGray" data-item-index="5" data-renderer-id="0" transform="translate(399, 3)"><g id="tx_clouddat_1lwrhel15nppfp-fill" stroke="none" fill="#FFFFFF"><g><text style="font: 20px Roboto, sans-serif; white-space: pre;"><tspan x="12" y="33.5" dominant-baseline="ideographic">Cloud-</tspan><tspan x="12" y="57.5" dominant-baseline="ideographic">Datensicherheit</tspan></text></g></g></g><g id="g-root-mode_1hgbi7115nwp3g-fill" data-item-order="0" data-item-id="mode_1hgbi7115nwp3g" data-item-class="Icon Stroke Indexed ColorStrokeGray" data-item-index="3" data-renderer-id="0" transform="translate(15, 75)"></g><g id="g-root-tx_zugnglic_1448iql15nppmq-fill" data-item-order="0" data-item-id="tx_zugnglic_1448iql15nppmq" data-item-class="Label Stroke Indexed ColorStrokeGray" data-item-index="3" data-renderer-id="0" transform="translate(75, 75)"><g id="tx_zugnglic_1448iql15nppmq-fill" stroke="none" fill="#FFFFFF"><g><text style="font: 20px Roboto, sans-serif; white-space: pre;"><tspan x="12" y="33.5" dominant-baseline="ideographic">Zugänglich ohne </tspan><tspan x="12" y="57.5" dominant-baseline="ideographic">Internet</tspan></text></g></g></g><g id="g-root-2_7qevx15nwp3i-fill" data-item-order="0" data-item-id="2_7qevx15nwp3i" data-item-class="Icon Stroke Indexed ColorStrokeGray" data-item-index="6" data-renderer-id="0" transform="translate(339, 75)"></g><g id="g-root-tx_bentigti_73xst15npo1w-fill" data-item-order="0" data-item-id="tx_bentigti_73xst15npo1w" data-item-class="Label Stroke Indexed ColorStrokeGray" data-item-index="6" data-renderer-id="0" transform="translate(399, 75)"><g id="tx_bentigti_73xst15npo1w-fill" stroke="none" fill="#FFFFFF"><g><text style="font: 20px Roboto, sans-serif; white-space: pre;"><tspan x="12" y="33.5" dominant-baseline="ideographic">Benötigt </tspan><tspan x="12" y="57.5" dominant-baseline="ideographic">Internetzugang</tspan></text></g></g></g><g id="g-root-tx_offlines_zqafvh15nponi-fill" data-item-order="0" data-item-id="tx_offlines_zqafvh15nponi" data-item-class="Label Stroke Indexed ColorStrokeGray" data-item-index="none" data-renderer-id="0" transform="translate(27, 243)"><g id="tx_offlines_zqafvh15nponi-fill" stroke="none" fill="#FFFFFF"><g><text style="font: 20px Roboto, sans-serif; white-space: pre;"><tspan x="13.25" y="33.5" dominant-baseline="ideographic">Offline-Speicherung</tspan></text></g></g></g><g id="g-root-tx_onlinesp_metxi515npq8f-fill" data-item-order="0" data-item-id="tx_onlinesp_metxi515npq8f" data-item-class="Label Stroke Indexed ColorStrokeGray" data-item-index="none" data-renderer-id="0" transform="translate(351, 243)"><g id="tx_onlinesp_metxi515npq8f-fill" stroke="none" fill="#FFFFFF"><g><text style="font: 20px Roboto, sans-serif; white-space: pre;"><tspan x="13.85" y="33.5" dominant-baseline="ideographic">Online-Speicherung</tspan></text></g></g></g><g id="g-root-tx_ausgewog_4o6e3h15nppfs-fill" data-item-order="0" data-item-id="tx_ausgewog_4o6e3h15nppfs" data-item-class="Label Stroke Title ColorStrokeGray" data-item-index="none" data-renderer-id="0" transform="translate(45, 315)"><g id="tx_ausgewog_4o6e3h15nppfs-fill" stroke="none" fill="#FFFFFF"><g><text style="font: 20px Roboto, sans-serif; white-space: pre;"><tspan x="14.41" y="33.5" dominant-baseline="ideographic">Ausgewogene Offline- und Online-Speicheroptionen.</tspan></text></g></g></g><g id="g-root-4.cu_sy_1uqj2e515nppmp-stroke" data-item-order="-92731" data-item-id="4.cu_sy_1uqj2e515nppmp" data-item-class="Part Indexed Stroke ColorFillBlack ColorStrokeGray" data-item-index="4" data-renderer-id="0" transform="translate(110.95700073242188, 171.75)"><g id="4.cu_sy_1uqj2e515nppmp-stroke" fill="none" stroke-linecap="round" stroke-linejoin="round" stroke-miterlimit="4" stroke="#FFFFFF" stroke-width="2"><g><path d="M 340.042999 45.25C 343.356999 45.25 346.042999 42.564 346.042999 39.25C 346.042999 35.936 343.356999 33.25 340.042999 33.25C 336.728999 33.25 334.042999 35.936 334.042999 39.25C 334.042999 42.564 336.728999 45.25 340.042999 45.25ZM 16.021999 45.25C 19.346999 45.25 22.042999 42.564 22.042999 39.25C 22.042999 35.936 19.346999 33.25 16.021999 33.25C 12.695999 33.25 9.999999 35.936 9.999999 39.25C 9.999999 42.564 12.695999 45.25 16.021999 45.25ZM 340.042999 33.25L 340.042999 10M 16.042999 10.25L 16.042999 33.25M 334.057999 39.275L 195.042999 39.275M 161.042999 39.275L 22.042999 39.275"></path></g></g></g><g id="g-root-3.Exclude_sy_58ijh15npp1k-stroke" data-item-order="-92730" data-item-id="3.Exclude_sy_58ijh15npp1k" data-item-class="Part Indexed Fill Stroke ColorFillBlack" data-item-index="3" data-renderer-id="0" transform="translate(231.5980224609375, 185)"><g id="3.Exclude_sy_58ijh15npp1k-stroke" fill="none" stroke-linecap="round" stroke-linejoin="round" stroke-miterlimit="4" stroke="#ffffff" stroke-width="2"><g><path d="M 57.401993 10C 49.928993 10 43.652993 15.122 41.893993 22.047L 10.591993 124.12C 9.999993 126.049 11.441993 128 13.459993 128L 101.343993 128C 103.360993 128 104.803993 126.049 104.211993 124.12L 72.911993 22.054C 71.153993 15.126 64.876993 10 57.401993 10ZM 57.401993 33C 61.267993 33 64.401993 29.866 64.401993 26C 64.401993 22.134 61.267993 19 57.401993 19C 53.535993 19 50.401993 22.134 50.401993 26C 50.401993 29.866 53.535993 33 57.401993 33Z"></path></g></g></g><g id="g-root-2.right-bucket_sy_4l20nx15npo9b-stroke" data-item-order="-92728" data-item-id="2.right-bucket_sy_4l20nx15npo9b" data-item-class="Part Indexed Fill Stroke" data-item-index="2" data-renderer-id="0" transform="translate(327, 135)"><g id="2.right-bucket_sy_4l20nx15npo9b-stroke" fill="none" stroke-linecap="round" stroke-linejoin="round" stroke-miterlimit="4" stroke="#ffffff" stroke-width="2"><g><path d="M 11.081 15.729C 10.338 14.904 10 13.826 10 12.716L 10 12.716C 10 11.216 11.216 10 12.716 10L 235.284 10C 236.784 10 238 11.216 238 12.716L 238 12.716C 238 13.826 237.662 14.904 236.919 15.729C 231.551 21.692 204.717 46 124 46C 43.283 46 16.449 21.692 11.081 15.729Z"></path></g></g></g><g id="g-root-1.left-bucket_sy_4l20nx15npo9a-stroke" data-item-order="-92726" data-item-id="1.left-bucket_sy_4l20nx15npo9a" data-item-class="Part Indexed Indexed_1 Fill Stroke" data-item-index="1" data-renderer-id="0" transform="translate(3, 135)"><g id="1.left-bucket_sy_4l20nx15npo9a-stroke" fill="none" stroke-linecap="round" stroke-linejoin="round" stroke-miterlimit="4" stroke="#ffffff" stroke-width="2"><g><path d="M 11.0812 15.729C 10.3384 14.904 10 13.826 10 12.716L 10 12.716C 10 11.216 11.2158 10 12.7157 10L 235.284 10C 236.784 10 238 11.216 238 12.716L 238 12.716C 238 13.826 237.662 14.904 236.919 15.729C 231.551 21.692 204.717 46 124 46C 43.2826 46 16.4488 21.692 11.0812 15.729Z"></path></g></g></g><g id="g-root-lock_qu0yjh15nwp3h-stroke" data-item-order="0" data-item-id="lock_qu0yjh15nwp3h" data-item-class="Icon Stroke Indexed ColorStrokeGray" data-item-index="2" data-renderer-id="0" transform="translate(15, 3)"><g id="lock_qu0yjh15nwp3h-stroke" fill="none" stroke-linecap="round" stroke-linejoin="round" stroke-miterlimit="4" stroke="#FFFFFF" stroke-width="2"><g><path d="M 51 37.812C 54.139717 36.359497 56.107956 33.171738 56.000004 29.714001C 55.962135 27.155087 54.884983 24.721664 53.01619 22.973211C 51.1474 21.224758 48.64777 20.311714 46.091999 20.444C 43.812824 15.857828 39.121201 12.969603 34 13C 27.021761 12.906301 21.174503 18.25687 20.65 25.216C 18.566479 24.757912 16.387331 25.257915 14.711922 26.578485C 13.036512 27.899057 12.041294 29.901115 12 32.034C 11.832671 35.152145 13.949627 37.932133 17 38.600002M 44 53C 44 54.104568 43.104568 55 42 55L 28 55C 26.89543 55 26 54.104568 26 53L 26 41C 26 39.895432 26.89543 39 28 39L 42 39C 43.104568 39 44 39.895432 44 41ZM 32.5 47.125999C 32.5 48.506714 33.619289 49.625999 35 49.625999C 36.380714 49.625999 37.5 48.506714 37.5 47.125999C 37.5 45.745289 36.380714 44.625999 35 44.625999C 33.619289 44.625999 32.5 45.745289 32.5 47.125999ZM 40 36C 40 33.238579 37.761425 31 35 31C 32.238579 31 30 33.238579 30 36L 30 39L 40 39Z"></path></g></g></g><g id="g-root-tx_lokaleda_hxrh7h15npouj-stroke" data-item-order="0" data-item-id="tx_lokaleda_hxrh7h15npouj" data-item-class="Label Stroke Indexed ColorStrokeGray" data-item-index="2" data-renderer-id="0" transform="translate(75, 3)"></g><g id="g-root-2_18mjx7h15nwowf-stroke" data-item-order="0" data-item-id="2_18mjx7h15nwowf" data-item-class="Icon Stroke Indexed ColorStrokeGray" data-item-index="5" data-renderer-id="0" transform="translate(339, 3)"><g id="2_18mjx7h15nwowf-stroke" fill="none" stroke-linecap="round" stroke-linejoin="round" stroke-miterlimit="4" stroke="#FFFFFF" stroke-width="2"><g><path d="M 15.530001 11.5L 26.73 11.5C 27.787075 11.5 28.644001 12.356927 28.644001 13.414001L 28.643999 22.5L 28.643999 22.5L 13.616 22.5L 13.616 22.5L 13.616 13.414C 13.616 12.356927 14.472927 11.5 15.530001 11.5ZM 28.76 29.5L 13.502 29.5C 12.896271 29.555817 12.303329 29.301926 11.925696 28.825043C 11.548063 28.348162 11.436834 27.712811 11.63 27.136L 13.616 22.5L 28.646 22.5L 30.634001 27.136C 30.827358 27.713171 30.715918 28.348967 30.337788 28.825968C 29.959656 29.302969 29.366066 29.556553 28.76 29.5ZM 15.8 38.5L 27 38.5C 28.057074 38.5 28.914001 39.35693 28.914001 40.414001L 28.914 49.5L 28.914 49.5L 13.878 49.5L 13.878 49.5L 13.878 40.414001C 13.877995 39.904991 14.080747 39.416939 14.441423 39.057762C 14.8021 38.698586 15.290991 38.497871 15.8 38.5ZM 29.021999 56.5L 13.764 56.5C 13.158272 56.555817 12.565329 56.301926 12.187696 55.825043C 11.810063 55.34816 11.698834 54.712811 11.892 54.136002L 13.878 49.5L 28.908001 49.5L 30.896 54.136002C 31.089359 54.713173 30.977919 55.348965 30.599787 55.82597C 30.221657 56.302971 29.628067 56.556553 29.022001 56.5ZM 33.762001 12.5L 46.762001 12.5L 46.762001 15.5M 35.762001 55.5L 46.762001 55.5L 46.762001 52.5M 40.5 31.5L 53.5 31.5C 53.5 31.5 56.5 31.5 56.5 34.5L 56.5 43.5C 56.5 43.5 56.5 46.5 53.5 46.5L 40.5 46.5C 40.5 46.5 37.5 46.5 37.5 43.5L 37.5 34.5C 37.5 34.5 37.5 31.5 40.5 31.5M 40 31.542L 40 28.5C 40 24.634007 43.134007 21.5 47 21.5C 50.865993 21.5 54 24.634007 54 28.5L 54 31.542M 44 39L 46 41L 50 37M 19.838001 53L 22.375999 53M 19.838001 26L 22.375999 26"></path></g></g></g><g id="g-root-tx_clouddat_1lwrhel15nppfp-stroke" data-item-order="0" data-item-id="tx_clouddat_1lwrhel15nppfp" data-item-class="Label Stroke Indexed ColorStrokeGray" data-item-index="5" data-renderer-id="0" transform="translate(399, 3)"></g><g id="g-root-mode_1hgbi7115nwp3g-stroke" data-item-order="0" data-item-id="mode_1hgbi7115nwp3g" data-item-class="Icon Stroke Indexed ColorStrokeGray" data-item-index="3" data-renderer-id="0" transform="translate(15, 75)"><g id="mode_1hgbi7115nwp3g-stroke" fill="none" stroke-linecap="round" stroke-linejoin="round" stroke-miterlimit="4" stroke="#FFFFFF" stroke-width="2"><g><path d="M 10 10M 11 57L 57 11M 39.015999 23.327999L 39 23.312L 39 16C 39 13.238577 36.761425 11 34 11C 31.238577 11 29 13.238577 29 16L 29 23.312L 12.354 38C 11.106282 39.100384 10.669909 40.85817 11.258138 42.41433C 11.846366 43.97049 13.336376 45.000103 15 45C 16.186001 45 16.646 44.799999 19.73 42.612M 29 44.655998L 29 48.874001L 25.922001 51.841999C 25.043097 52.690762 24.766743 53.987743 25.22332 55.121059C 25.679897 56.254372 26.778175 56.997562 28 57C 30 57 34 54 34 54C 34 54 38 57 40 57C 41.221825 56.997562 42.320103 56.254372 42.77668 55.121059C 43.233257 53.987743 42.956905 52.690762 42.077999 51.842003L 39 48.874001L 39 36C 51.071999 44.506001 51.09 45 53 45C 54.663624 45.000103 56.153633 43.97049 56.741863 42.41433C 57.33009 40.85817 56.893719 39.100384 55.646 38L 45.026001 28.629999"></path></g></g></g><g id="g-root-tx_zugnglic_1448iql15nppmq-stroke" data-item-order="0" data-item-id="tx_zugnglic_1448iql15nppmq" data-item-class="Label Stroke Indexed ColorStrokeGray" data-item-index="3" data-renderer-id="0" transform="translate(75, 75)"></g><g id="g-root-2_7qevx15nwp3i-stroke" data-item-order="0" data-item-id="2_7qevx15nwp3i" data-item-class="Icon Stroke Indexed ColorStrokeGray" data-item-index="6" data-renderer-id="0" transform="translate(339, 75)"><g id="2_7qevx15nwp3i-stroke" fill="none" stroke-linecap="round" stroke-linejoin="round" stroke-miterlimit="4" stroke="#FFFFFF" stroke-width="2"><g><path d="M 15.142858 11.714286L 52.857143 11.714286C 52.857143 11.714286 56.285713 11.714286 56.285713 15.142858L 56.285713 25.428572C 56.285713 25.428572 56.285713 28.857143 52.857143 28.857143L 15.142858 28.857143C 15.142858 28.857143 11.714286 28.857143 11.714286 25.428572L 11.714286 15.142858C 11.714286 15.142858 11.714286 11.714286 15.142858 11.714286M 30.571428 20.285715L 37.428574 20.285715M 15.142858 28.857143C 13.24931 28.857143 11.714286 30.392166 11.714286 32.285713L 11.714286 42.57143C 11.714286 44.464977 13.24931 46 15.142858 46L 52.857143 46C 54.750694 46 56.285713 44.464977 56.285713 42.57143L 56.285713 32.285713C 56.285713 30.392166 54.750694 28.857143 52.857143 28.857143M 30.571428 37.428574L 37.428574 37.428574M 34 46L 34 56.285713M 16.857143 56.285713L 51.142857 56.285713"></path></g></g></g><g id="g-root-tx_bentigti_73xst15npo1w-stroke" data-item-order="0" data-item-id="tx_bentigti_73xst15npo1w" data-item-class="Label Stroke Indexed ColorStrokeGray" data-item-index="6" data-renderer-id="0" transform="translate(399, 75)"></g><g id="g-root-tx_offlines_zqafvh15nponi-stroke" data-item-order="0" data-item-id="tx_offlines_zqafvh15nponi" data-item-class="Label Stroke Indexed ColorStrokeGray" data-item-index="none" data-renderer-id="0" transform="translate(27, 243)"></g><g id="g-root-tx_onlinesp_metxi515npq8f-stroke" data-item-order="0" data-item-id="tx_onlinesp_metxi515npq8f" data-item-class="Label Stroke Indexed ColorStrokeGray" data-item-index="none" data-renderer-id="0" transform="translate(351, 243)"></g><g id="g-root-tx_ausgewog_4o6e3h15nppfs-stroke" data-item-order="0" data-item-id="tx_ausgewog_4o6e3h15nppfs" data-item-class="Label Stroke Title ColorStrokeGray" data-item-index="none" data-renderer-id="0" transform="translate(45, 315)"></g></g></g></svg>