<?xml version="1.0" encoding="utf-8" standalone="yes"?>
<!DOCTYPE svg PUBLIC "-//W3C//DTD SVG 1.1//EN" "http://www.w3.org/Graphics/SVG/1.1/DTD/svg11.dtd">
<svg width="542" height="601" viewBox="0 0 542 601" style="fill:none;stroke:none;fill-rule:evenodd;clip-rule:evenodd;stroke-linecap:round;stroke-linejoin:round;stroke-miterlimit:1.5;" version="1.1" xmlns="http://www.w3.org/2000/svg" xmlns:xlink="http://www.w3.org/1999/xlink"><style id="fontImports">@import url("https://fonts.googleapis.com/css2?family=Roboto:wght@400;700&amp;display=block");</style><g id="items" style="isolation: isolate"><g id="blend" style="mix-blend-mode:screen"><g id="g-root-3.cu_sy_1cza3u515dnbbi-fill" data-item-order="-272155" data-item-id="3.cu_sy_1cza3u515dnbbi" data-item-class="Part Indexed Stroke" data-item-index="3" data-renderer-id="0" transform="translate(3, 145.9990234375)"></g><g id="g-root-2.cu_sy_1lux43115dnait-fill" data-item-order="-272153" data-item-id="2.cu_sy_1lux43115dnait" data-item-class="Part Indexed Stroke" data-item-index="2" data-renderer-id="0" transform="translate(255.00048828125, 38)"></g><g id="g-root-1.cu_sy_1qaqm7h15dn9qk-fill" data-item-order="-272152" data-item-id="1.cu_sy_1qaqm7h15dn9qk" data-item-class="Part Indexed Indexed_1 Fill Stroke" data-item-index="1" data-renderer-id="0" transform="translate(225.00048828125, 62)"><g id="1.cu_sy_1qaqm7h15dn9qk-fill" stroke="none" fill="#505050"><g><path d="M 10 34L 28 10L 28 18L 52 18L 52 10L 70 34L 52 58L 52 50L 28 50L 28 58L 10 34Z"></path></g></g></g><g id="g-root-tx_vorteile_zjg9v115doohv-fill" data-item-order="0" data-item-id="tx_vorteile_zjg9v115doohv" data-item-class="Label Stroke" data-item-index="none" data-renderer-id="0" transform="translate(63.00048828125, 74)"><g id="tx_vorteile_zjg9v115doohv-fill" stroke="none" fill="#A3A3A3"><g><text style="font: 20px Roboto, sans-serif; white-space: pre;"><tspan x="12" y="33.5" dominant-baseline="ideographic">Vorteile</tspan></text></g></g></g><g id="g-root-tx_nachteil_1cuab5915doq2q-fill" data-item-order="0" data-item-id="tx_nachteil_1cuab5915doq2q" data-item-class="Label Stroke" data-item-index="none" data-renderer-id="0" transform="translate(363.00048828125, 74)"><g id="tx_nachteil_1cuab5915doq2q-fill" stroke="none" fill="#A3A3A3"><g><text style="font: 20px Roboto, sans-serif; white-space: pre;"><tspan x="12" y="33.5" dominant-baseline="ideographic">Nachteile</tspan></text></g></g></g><g id="g-root-ques_8xs7al15dvoqq-fill" data-item-order="0" data-item-id="ques_8xs7al15dvoqq" data-item-class="Icon Stroke Indexed Indexed_1" data-item-index="1" data-renderer-id="0" transform="translate(3.00048828125, 182)"></g><g id="g-root-tx_klrungvo_1q5qtil15dooht-fill" data-item-order="0" data-item-id="tx_klrungvo_1q5qtil15dooht" data-item-class="Label Stroke Indexed Indexed_1" data-item-index="1" data-renderer-id="0" transform="translate(63.00048828125, 182)"><g id="tx_klrungvo_1q5qtil15dooht-fill" stroke="none" fill="#A3A3A3"><g><text style="font: 20px Roboto, sans-serif; white-space: pre;"><tspan x="12" y="33.5" dominant-baseline="ideographic">Klärung von </tspan><tspan x="12" y="57.5" dominant-baseline="ideographic">Fragen</tspan></text></g></g></g><g id="g-root-lapt_8vws1915duccm-fill" data-item-order="0" data-item-id="lapt_8vws1915duccm" data-item-class="Icon Stroke Indexed" data-item-index="101" data-renderer-id="0" transform="translate(303.00048828125, 182)"></g><g id="g-root-tx_mglichea_1hi7ze515dnbpo-fill" data-item-order="0" data-item-id="tx_mglichea_1hi7ze515dnbpo" data-item-class="Label Stroke Indexed" data-item-index="101" data-renderer-id="0" transform="translate(363.00048828125, 182)"><g id="tx_mglichea_1hi7ze515dnbpo-fill" stroke="none" fill="#A3A3A3"><g><text style="font: 20px Roboto, sans-serif; white-space: pre;"><tspan x="12" y="33.5" dominant-baseline="ideographic">Mögliche </tspan><tspan x="12" y="57.5" dominant-baseline="ideographic">Ablenkungen</tspan></text></g></g></g><g id="g-root-bubb_141578t15dvq4k-fill" data-item-order="0" data-item-id="bubb_141578t15dvq4k" data-item-class="Icon Stroke Indexed" data-item-index="2" data-renderer-id="0" transform="translate(3.00048828125, 266)"></g><g id="g-root-tx_interakt_1uuxfxp15dncaw-fill" data-item-order="0" data-item-id="tx_interakt_1uuxfxp15dncaw" data-item-class="Label Stroke Indexed" data-item-index="2" data-renderer-id="0" transform="translate(63.00048828125, 266)"><g id="tx_interakt_1uuxfxp15dncaw-fill" stroke="none" fill="#A3A3A3"><g><text style="font: 20px Roboto, sans-serif; white-space: pre;"><tspan x="12" y="33.5" dominant-baseline="ideographic">Interaktive </tspan><tspan x="12" y="57.5" dominant-baseline="ideographic">Lernumgebung</tspan></text></g></g></g><g id="g-root-2_1d3nffx15dsw78-fill" data-item-order="0" data-item-id="2_1d3nffx15dsw78" data-item-class="Icon Stroke Indexed" data-item-index="102" data-renderer-id="0" transform="translate(303.00048828125, 266)"></g><g id="g-root-tx_berflutu_93eh2l15dnbwr-fill" data-item-order="0" data-item-id="tx_berflutu_93eh2l15dnbwr" data-item-class="Label Stroke Indexed" data-item-index="102" data-renderer-id="0" transform="translate(363.00048828125, 266)"><g id="tx_berflutu_93eh2l15dnbwr-fill" stroke="none" fill="#A3A3A3"><g><text style="font: 20px Roboto, sans-serif; white-space: pre;"><tspan x="12" y="33.5" dominant-baseline="ideographic">Überflutung mit </tspan><tspan x="12" y="57.5" dominant-baseline="ideographic">Informationen</tspan></text></g></g></g><g id="g-root-a_huo5pp15dvpcd-fill" data-item-order="0" data-item-id="a_huo5pp15dvpcd" data-item-class="Icon Stroke Indexed" data-item-index="3" data-renderer-id="0" transform="translate(3.00048828125, 350)"></g><g id="g-root-tx_ausbilde_dl3egd15dna4v-fill" data-item-order="0" data-item-id="tx_ausbilde_dl3egd15dna4v" data-item-class="Label Stroke Indexed" data-item-index="3" data-renderer-id="0" transform="translate(63.00048828125, 350)"><g id="tx_ausbilde_dl3egd15dna4v-fill" stroke="none" fill="#A3A3A3"><g><text style="font: 20px Roboto, sans-serif; white-space: pre;"><tspan x="12" y="33.5" dominant-baseline="ideographic">Ausbilderantworten </tspan><tspan x="12" y="57.5" dominant-baseline="ideographic">hervorgehoben</tspan></text></g></g></g><g id="g-root-1_m8m8kt15dvqbl-fill" data-item-order="0" data-item-id="1_m8m8kt15dvqbl" data-item-class="Icon Stroke Indexed" data-item-index="103" data-renderer-id="0" transform="translate(303.00048828125, 350)"></g><g id="g-root-tx_konflikt_meuzfx15dnabu-fill" data-item-order="0" data-item-id="tx_konflikt_meuzfx15dnabu" data-item-class="Label Stroke Indexed" data-item-index="103" data-renderer-id="0" transform="translate(363.00048828125, 338)"><g id="tx_konflikt_meuzfx15dnabu-fill" stroke="none" fill="#A3A3A3"><g><text style="font: 20px Roboto, sans-serif; white-space: pre;"><tspan x="12" y="33.5" dominant-baseline="ideographic">Konflikte </tspan><tspan x="12" y="57.5" dominant-baseline="ideographic">zwischen </tspan><tspan x="12" y="81.5" dominant-baseline="ideographic">Nutzern</tspan></text></g></g></g><g id="g-root-netw_1hbz8j115dvrpf-fill" data-item-order="0" data-item-id="netw_1hbz8j115dvrpf" data-item-class="Icon Stroke Indexed" data-item-index="4" data-renderer-id="0" transform="translate(3.00048828125, 434)"></g><g id="g-root-tx_frderung_qvxfql15dnbpq-fill" data-item-order="0" data-item-id="tx_frderung_qvxfql15dnbpq" data-item-class="Label Stroke Indexed" data-item-index="4" data-renderer-id="0" transform="translate(63.00048828125, 434)"><g id="tx_frderung_qvxfql15dnbpq-fill" stroke="none" fill="#A3A3A3"><g><text style="font: 20px Roboto, sans-serif; white-space: pre;"><tspan x="12" y="33.5" dominant-baseline="ideographic">Förderung des </tspan><tspan x="12" y="57.5" dominant-baseline="ideographic">Austauschs</tspan></text></g></g></g><g id="g-root-glas_13z9rzh15dvr48-fill" data-item-order="0" data-item-id="glas_13z9rzh15dvr48" data-item-class="Icon Stroke Indexed" data-item-index="104" data-renderer-id="0" transform="translate(303.00048828125, 434)"></g><g id="g-root-tx_zeitaufw_18lc0z115dnb41-fill" data-item-order="0" data-item-id="tx_zeitaufw_18lc0z115dnb41" data-item-class="Label Stroke Indexed" data-item-index="104" data-renderer-id="0" transform="translate(363.00048828125, 422)"><g id="tx_zeitaufw_18lc0z115dnb41-fill" stroke="none" fill="#A3A3A3"><g><text style="font: 20px Roboto, sans-serif; white-space: pre;"><tspan x="12" y="33.5" dominant-baseline="ideographic">Zeitaufwand </tspan><tspan x="12" y="57.5" dominant-baseline="ideographic">für </tspan><tspan x="12" y="81.5" dominant-baseline="ideographic">Diskussionen</tspan></text></g></g></g><g id="g-root-tx_notwendi_1lwsjcd15dn9j4-fill" data-item-order="0" data-item-id="tx_notwendi_1lwsjcd15dn9j4" data-item-class="Label Stroke Indexed" data-item-index="105" data-renderer-id="0" transform="translate(363.00048828125, 506)"><g id="tx_notwendi_1lwsjcd15dn9j4-fill" stroke="none" fill="#A3A3A3"><g><text style="font: 20px Roboto, sans-serif; white-space: pre;"><tspan x="12" y="33.5" dominant-baseline="ideographic">Notwendigkeit </tspan><tspan x="12" y="57.5" dominant-baseline="ideographic">moderierter </tspan><tspan x="12" y="81.5" dominant-baseline="ideographic">Diskussionen</tspan></text></g></g></g><g id="g-root-tx_vertiefu_147dy3x15dna4t-fill" data-item-order="0" data-item-id="tx_vertiefu_147dy3x15dna4t" data-item-class="Label Stroke Indexed" data-item-index="5" data-renderer-id="0" transform="translate(63.00048828125, 518)"><g id="tx_vertiefu_147dy3x15dna4t-fill" stroke="none" fill="#A3A3A3"><g><text style="font: 20px Roboto, sans-serif; white-space: pre;"><tspan x="12" y="33.5" dominant-baseline="ideographic">Vertiefung des </tspan><tspan x="12" y="57.5" dominant-baseline="ideographic">Verständnisses</tspan></text></g></g></g><g id="g-root-mail_qwjwtp15dsykt-fill" data-item-order="0" data-item-id="mail_qwjwtp15dsykt" data-item-class="Icon Stroke Indexed" data-item-index="105" data-renderer-id="0" transform="translate(303.00048828125, 518)"></g><g id="g-root-tx_diskussi_1cza3u515dnbbj-fill" data-item-order="0" data-item-id="tx_diskussi_1cza3u515dnbbj" data-item-class="Label Stroke" data-item-index="none" data-renderer-id="0" transform="translate(123.00048828125, 2)"><g id="tx_diskussi_1cza3u515dnbbj-fill" stroke="none" fill="#A3A3A3"><g><text style="font: 20px Roboto, sans-serif; white-space: pre;"><tspan x="12.1" y="33.5" dominant-baseline="ideographic">Diskussionen zu Lerninhalten</tspan></text></g></g></g><g id="g-root-chip_1haqact15duc5j-fill" data-item-order="0" data-item-id="chip_1haqact15duc5j" data-item-class="Icon Stroke Indexed" data-item-index="5" data-renderer-id="0" transform="translate(3.00048828125, 518)"></g><g id="g-root-3.cu_sy_1cza3u515dnbbi-stroke" data-item-order="-272155" data-item-id="3.cu_sy_1cza3u515dnbbi" data-item-class="Part Indexed Stroke" data-item-index="3" data-renderer-id="0" transform="translate(3, 145.9990234375)"><g id="3.cu_sy_1cza3u515dnbbi-stroke" fill="none" stroke-linecap="round" stroke-linejoin="round" stroke-miterlimit="4" stroke="#A3A3A3" stroke-width="2"><g><path d="M 514.0005 10.000007L 10 10.001007"></path></g></g></g><g id="g-root-2.cu_sy_1lux43115dnait-stroke" data-item-order="-272153" data-item-id="2.cu_sy_1lux43115dnait" data-item-class="Part Indexed Stroke" data-item-index="2" data-renderer-id="0" transform="translate(255.00048828125, 38)"><g id="2.cu_sy_1lux43115dnait-stroke" fill="none" stroke-linecap="round" stroke-linejoin="round" stroke-miterlimit="4" stroke="#A3A3A3" stroke-width="2"><g><path d="M 10 298L 10 214M 10 382L 10 298M 10 466L 10 382M 10 550L 10 466M 10 214L 10 118M 10 118L 10 80M 10 36L 10 10"></path></g></g></g><g id="g-root-1.cu_sy_1qaqm7h15dn9qk-stroke" data-item-order="-272152" data-item-id="1.cu_sy_1qaqm7h15dn9qk" data-item-class="Part Indexed Indexed_1 Fill Stroke" data-item-index="1" data-renderer-id="0" transform="translate(225.00048828125, 62)"><g id="1.cu_sy_1qaqm7h15dn9qk-stroke" fill="none" stroke-linecap="round" stroke-linejoin="round" stroke-miterlimit="4" stroke="#A3A3A3" stroke-width="2"><g><path d="M 10 34L 28 10L 28 18L 52 18L 52 10L 70 34L 52 58L 52 50L 28 50L 28 58L 10 34Z"></path></g></g><g id="1.cu_sy_1qaqm7h15dn9qk-stroke" fill="none" stroke-linecap="round" stroke-linejoin="round" stroke-miterlimit="4" stroke="#A3A3A3" stroke-width="2"><g><path d="M 30.599 28.373L 34.999 39.48M 35.199 39.097L 39.599 28.66M 49.399 30.192C 49.065 29.937 48.732 29.682 48.399 29.426C 47.799 28.852 46.832 28.628 45.499 28.756C 44.165 28.884 43.465 29.522 43.399 30.671C 43.265 31.82 44.232 32.905 46.299 33.927C 48.432 34.884 49.465 36.001 49.399 37.278C 49.399 38.555 48.632 39.321 47.099 39.576C 45.499 39.767 44.432 39.416 43.899 38.523C 43.565 38.076 43.265 37.629 42.999 37.182"></path></g></g></g><g id="g-root-tx_vorteile_zjg9v115doohv-stroke" data-item-order="0" data-item-id="tx_vorteile_zjg9v115doohv" data-item-class="Label Stroke" data-item-index="none" data-renderer-id="0" transform="translate(63.00048828125, 74)"></g><g id="g-root-tx_nachteil_1cuab5915doq2q-stroke" data-item-order="0" data-item-id="tx_nachteil_1cuab5915doq2q" data-item-class="Label Stroke" data-item-index="none" data-renderer-id="0" transform="translate(363.00048828125, 74)"></g><g id="g-root-ques_8xs7al15dvoqq-stroke" data-item-order="0" data-item-id="ques_8xs7al15dvoqq" data-item-class="Icon Stroke Indexed Indexed_1" data-item-index="1" data-renderer-id="0" transform="translate(3.00048828125, 182)"><g id="ques_8xs7al15dvoqq-stroke" fill="none" stroke-linecap="round" stroke-linejoin="round" stroke-miterlimit="4" stroke="#A3A3A3" stroke-width="2"><g><path d="M 57 45C 57 46.104568 56.104568 47 55 47L 33 47L 25 55L 25 47L 13 47C 11.895431 47 11 46.104568 11 45L 11 15C 11 13.895431 11.895431 13 13 13L 55 13C 56.104568 13 57 13.895431 57 15ZM 29 25C 29.000454 22.003443 31.211695 19.466644 34.180145 19.057186C 37.148598 18.647732 39.964031 20.491169 40.7757 23.375706C 41.587372 26.260241 40.146393 29.301378 37.400002 30.5C 35.94165 31.136477 34.999229 32.576805 35 34.167999L 35 35M 35 39.5C 35.276142 39.5 35.5 39.723858 35.5 40C 35.5 40.276142 35.276142 40.5 35 40.5C 34.723858 40.5 34.5 40.276142 34.5 40C 34.5 39.723858 34.723858 39.5 35 39.5"></path></g></g></g><g id="g-root-tx_klrungvo_1q5qtil15dooht-stroke" data-item-order="0" data-item-id="tx_klrungvo_1q5qtil15dooht" data-item-class="Label Stroke Indexed Indexed_1" data-item-index="1" data-renderer-id="0" transform="translate(63.00048828125, 182)"></g><g id="g-root-lapt_8vws1915duccm-stroke" data-item-order="0" data-item-id="lapt_8vws1915duccm" data-item-class="Icon Stroke Indexed" data-item-index="101" data-renderer-id="0" transform="translate(303.00048828125, 182)"><g id="lapt_8vws1915duccm-stroke" fill="none" stroke-linecap="round" stroke-linejoin="round" stroke-miterlimit="4" stroke="#A3A3A3" stroke-width="2"><g><path d="M 39 49L 55 49L 56.970001 55.757999C 57.044487 56.056641 56.977295 56.372944 56.787846 56.61552C 56.598392 56.858097 56.307789 56.999916 56 57L 38 57C 37.692207 56.999916 37.401608 56.858097 37.212158 56.61552C 37.022705 56.372944 36.955513 56.056641 37.029999 55.757999ZM 54 39L 40 39C 39.447716 39 39 39.447716 39 40L 39 49L 55 49L 55 40C 55 39.447716 54.552284 39 54 39ZM 46 53L 48 53M 34 37L 11 37C 11.019445 35.143372 11.403379 33.308643 12.13 31.6C 12.93 30 16.256001 28.9 20.436001 27.351999C 21.566 26.934 21.380001 23.984001 20.880001 23.431999C 19.268551 21.685833 18.479071 19.334854 18.709999 16.969999C 18.565205 15.46426 19.052738 13.966075 20.055944 12.833911C 21.059151 11.701747 22.487778 11.037463 24 11C 25.512222 11.037463 26.940847 11.701747 27.944054 12.833911C 28.947262 13.966075 29.434793 15.46426 29.289999 16.969999C 29.521515 19.335524 28.731993 21.687351 27.119999 23.433998C 26.620001 23.986 26.434 26.936001 27.563999 27.354C 31.743999 28.902 35.071999 30.007999 35.870003 31.601999C 36.236435 32.365215 36.505222 33.17157 36.670002 34.001999M 31.823999 11.474C 32.506039 11.159061 33.248764 10.997273 34 11C 35.512222 11.037463 36.940849 11.701747 37.944054 12.833911C 38.947262 13.966075 39.434792 15.46426 39.290001 16.969999C 39.521515 19.335524 38.731995 21.687351 37.119999 23.433998C 36.620003 23.986 36.433998 26.936001 37.563999 27.354C 41.743999 28.902 45.071999 30.007999 45.869999 31.601999C 46.232315 32.359676 46.497738 33.159977 46.66 33.984001"></path></g></g></g><g id="g-root-tx_mglichea_1hi7ze515dnbpo-stroke" data-item-order="0" data-item-id="tx_mglichea_1hi7ze515dnbpo" data-item-class="Label Stroke Indexed" data-item-index="101" data-renderer-id="0" transform="translate(363.00048828125, 182)"></g><g id="g-root-bubb_141578t15dvq4k-stroke" data-item-order="0" data-item-id="bubb_141578t15dvq4k" data-item-class="Icon Stroke Indexed" data-item-index="2" data-renderer-id="0" transform="translate(3.00048828125, 266)"><g id="bubb_141578t15dvq4k-stroke" fill="none" stroke-linecap="round" stroke-linejoin="round" stroke-miterlimit="4" stroke="#A3A3A3" stroke-width="2"><g><path d="M 34 12C 21.298 12 11 20.506001 11 31C 11.108053 36.291878 13.608634 41.249649 17.799999 44.481998L 13 56L 25.743999 48.717999C 28.413612 49.567719 31.19842 50.000145 34 50C 46.702 50 57 41.493999 57 31C 57 20.506001 46.702 12 34 12Z"></path></g></g></g><g id="g-root-tx_interakt_1uuxfxp15dncaw-stroke" data-item-order="0" data-item-id="tx_interakt_1uuxfxp15dncaw" data-item-class="Label Stroke Indexed" data-item-index="2" data-renderer-id="0" transform="translate(63.00048828125, 266)"></g><g id="g-root-2_1d3nffx15dsw78-stroke" data-item-order="0" data-item-id="2_1d3nffx15dsw78" data-item-class="Icon Stroke Indexed" data-item-index="102" data-renderer-id="0" transform="translate(303.00048828125, 266)"><g id="2_1d3nffx15dsw78-stroke" fill="none" stroke-linecap="round" stroke-linejoin="round" stroke-miterlimit="4" stroke="#A3A3A3" stroke-width="2"><g><path d="M 17 11L 51 11C 51 11 55 11 55 15L 55 53C 55 53 55 57 51 57L 17 57C 17 57 13 57 13 53L 13 15C 13 15 13 11 17 11M 13 21L 55 21M 13 33L 55 33M 13 45L 55 45M 27 21L 27 57M 41 21L 41 57M 18 27L 22 27M 18 39L 22 39M 18 51L 22 51"></path></g></g></g><g id="g-root-tx_berflutu_93eh2l15dnbwr-stroke" data-item-order="0" data-item-id="tx_berflutu_93eh2l15dnbwr" data-item-class="Label Stroke Indexed" data-item-index="102" data-renderer-id="0" transform="translate(363.00048828125, 266)"></g><g id="g-root-a_huo5pp15dvpcd-stroke" data-item-order="0" data-item-id="a_huo5pp15dvpcd" data-item-class="Icon Stroke Indexed" data-item-index="3" data-renderer-id="0" transform="translate(3.00048828125, 350)"><g id="a_huo5pp15dvpcd-stroke" fill="none" stroke-linecap="round" stroke-linejoin="round" stroke-miterlimit="4" stroke="#A3A3A3" stroke-width="2"><g><path d="M 15 45L 15 39M 27 45L 27 39M 15 45L 27 45M 21 57L 21 49M 21 28L 21 38M 26 57L 27 45L 31 45L 31 38C 31 32.477154 26.522848 28 21 28C 15.477153 28 11 32.477154 11 38L 11 45L 15 45L 16 57ZM 14 18C 14 21.865993 17.134007 25 21 25C 24.865993 25 28 21.865993 28 18C 28 14.134007 24.865993 11 21 11C 17.134007 11 14 14.134007 14 18ZM 14.8 14.756001C 17.020029 16.842838 19.953133 18.003202 23 18C 24.696709 18.002375 26.37451 17.64377 27.922001 16.948M 37 45L 53 45C 55.209141 45 57 43.209141 57 41L 57 15C 57 12.790861 55.209141 11 53 11L 30 11M 41 33L 41 24C 41 22.343147 42.343147 21 44 21C 45.656857 21 47 22.343147 47 24L 47 33M 41 27L 47 27"></path></g></g></g><g id="g-root-tx_ausbilde_dl3egd15dna4v-stroke" data-item-order="0" data-item-id="tx_ausbilde_dl3egd15dna4v" data-item-class="Label Stroke Indexed" data-item-index="3" data-renderer-id="0" transform="translate(63.00048828125, 350)"></g><g id="g-root-1_m8m8kt15dvqbl-stroke" data-item-order="0" data-item-id="1_m8m8kt15dvqbl" data-item-class="Icon Stroke Indexed" data-item-index="103" data-renderer-id="0" transform="translate(303.00048828125, 350)"><g id="1_m8m8kt15dvqbl-stroke" fill="none" stroke-linecap="round" stroke-linejoin="round" stroke-miterlimit="4" stroke="#A3A3A3" stroke-width="2"><g><path d="M 21.486 56.5L 21.486 53.472L 19.548 53.472C 18.512695 53.468075 17.523813 53.041897 16.809999 52.292C 16.078564 51.523819 15.672266 50.502701 15.676001 49.442001L 15.676001 45.414001L 13.222 45.414001C 12.899139 45.414055 12.598741 45.24876 12.426 44.975998C 12.243681 44.700153 12.204283 44.353745 12.32 44.043999C 13.168 41.751999 14.852 40.436001 15.676001 38.393997C 15.592 32.174 20.496 27.284 26.812 27.284C 27.648001 27.284 28.478001 27.374001 29.290001 27.549999M 32.959999 56.5L 32.959999 49.085999C 31.162493 47.344109 29.919794 45.109894 29.388 42.663998C 28.846418 40.197609 29.031914 37.627075 29.921999 35.264C 30.794239 32.931534 32.343063 30.912628 34.369999 29.466C 36.361046 28.048763 38.744061 27.286814 41.187996 27.285999C 47.504002 27.285999 52.408001 32.172001 52.324001 38.393997C 53.147999 40.433998 54.832001 41.753998 55.68 44.043999C 55.794018 44.35371 55.755482 44.699039 55.576 44.975998C 55.402878 45.249363 55.10157 45.414742 54.778 45.413998L 52.324001 45.414001L 52.324001 49.442001C 52.324001 50.512001 51.916 51.535999 51.189999 52.292C 50.475708 53.042397 49.486 53.46862 48.450001 53.472L 46.514 53.472L 46.514 56.5M 36.75 11.5L 31.75 16.5L 37.75 16.5L 32.75 21.5M 52.669998 15.006001L 47.004002 19.24L 52.944 20.1L 47.278 24.332001M 14.83 15.006001L 20.496 19.24L 14.556 20.1L 20.222 24.332001"></path></g></g></g><g id="g-root-tx_konflikt_meuzfx15dnabu-stroke" data-item-order="0" data-item-id="tx_konflikt_meuzfx15dnabu" data-item-class="Label Stroke Indexed" data-item-index="103" data-renderer-id="0" transform="translate(363.00048828125, 338)"></g><g id="g-root-netw_1hbz8j115dvrpf-stroke" data-item-order="0" data-item-id="netw_1hbz8j115dvrpf" data-item-class="Icon Stroke Indexed" data-item-index="4" data-renderer-id="0" transform="translate(3.00048828125, 434)"><g id="netw_1hbz8j115dvrpf-stroke" fill="none" stroke-linecap="round" stroke-linejoin="round" stroke-miterlimit="4" stroke="#A3A3A3" stroke-width="2"><g><path d="M 11.072001 33.996002C 11.072001 46.698551 21.369452 56.996002 34.071999 56.996002C 46.774551 56.996002 57.071999 46.698551 57.071999 33.996002C 57.071999 21.293451 46.774551 10.996 34.071999 10.996C 21.369452 10.996 11.072001 21.293451 11.072001 33.996002ZM 23.071999 25.496C 23.072001 27.981281 25.08672 29.996 27.572001 29.996C 30.057281 29.996 32.071999 27.981281 32.071999 25.496C 32.071999 23.010719 30.057281 20.996 27.572001 20.996C 25.08672 20.996 23.072001 23.010719 23.072001 25.496ZM 36.071999 45.495998C 36.071999 46.876713 37.191288 47.996002 38.571999 47.996002C 39.952713 47.996002 41.071999 46.876713 41.071999 45.496002C 41.071999 44.115288 39.952713 42.996002 38.571999 42.996002C 37.191288 42.996002 36.071999 44.115288 36.071999 45.496002ZM 44.071999 30.496C 44.072002 32.428997 45.639004 33.996002 47.572002 33.996002C 49.504997 33.996002 51.072002 32.428997 51.072002 30.496C 51.072002 28.563004 49.504997 26.996 47.572002 26.996C 45.639004 26.996 44.072002 28.563004 44.072002 30.496ZM 32.071999 25C 36.542919 25.170311 40.80291 26.945305 44.071999 30M 48.27 33.928001L 49.07 34.996002C 49.07 34.996002 52.07 38.996002 52.07 47.995998M 43.717999 13.11L 44.071999 14C 45.519688 18.288517 46.1968 22.799444 46.071999 27.323999M 45.071999 33C 44.821491 37.13044 43.332851 41.089699 40.799999 44.362M 37.375999 47.692001L 37.071999 48C 37.071999 48 32.071999 53 21.071999 53M 34.071999 11C 31.335846 13.926501 29.135672 17.311386 27.571999 21M 25.236 29.344L 25.071999 30C 23.982292 35.408966 24.684383 41.0257 27.072001 46C 30.472 52.812 39.071999 56 39.071999 56L 39.818001 56.278M 23.071999 25.496C 23.071999 25.496 15.4 26.046 11.522 29.441999M 11.632 39.063999L 12.072001 38.996002C 12.072001 38.996002 25.834 36.879997 37.02 43.535999"></path></g></g></g><g id="g-root-tx_frderung_qvxfql15dnbpq-stroke" data-item-order="0" data-item-id="tx_frderung_qvxfql15dnbpq" data-item-class="Label Stroke Indexed" data-item-index="4" data-renderer-id="0" transform="translate(63.00048828125, 434)"></g><g id="g-root-glas_13z9rzh15dvr48-stroke" data-item-order="0" data-item-id="glas_13z9rzh15dvr48" data-item-class="Icon Stroke Indexed" data-item-index="104" data-renderer-id="0" transform="translate(303.00048828125, 434)"><g id="glas_13z9rzh15dvr48-stroke" fill="none" stroke-linecap="round" stroke-linejoin="round" stroke-miterlimit="4" stroke="#A3A3A3" stroke-width="2"><g><path d="M 46 22C 46 28.627419 40.627419 34 34 34C 27.372585 34 22 28.627419 22 22L 22 11.714286L 46 11.714286ZM 46 46C 46 39.372585 40.627419 34 34 34C 27.372585 34 22 39.372585 22 46L 22 56.285713L 46 56.285713ZM 15.142858 11.714286L 52.857143 11.714286M 15.142858 56.285713L 52.857143 56.285713"></path></g></g></g><g id="g-root-tx_zeitaufw_18lc0z115dnb41-stroke" data-item-order="0" data-item-id="tx_zeitaufw_18lc0z115dnb41" data-item-class="Label Stroke Indexed" data-item-index="104" data-renderer-id="0" transform="translate(363.00048828125, 422)"></g><g id="g-root-tx_notwendi_1lwsjcd15dn9j4-stroke" data-item-order="0" data-item-id="tx_notwendi_1lwsjcd15dn9j4" data-item-class="Label Stroke Indexed" data-item-index="105" data-renderer-id="0" transform="translate(363.00048828125, 506)"></g><g id="g-root-tx_vertiefu_147dy3x15dna4t-stroke" data-item-order="0" data-item-id="tx_vertiefu_147dy3x15dna4t" data-item-class="Label Stroke Indexed" data-item-index="5" data-renderer-id="0" transform="translate(63.00048828125, 518)"></g><g id="g-root-mail_qwjwtp15dsykt-stroke" data-item-order="0" data-item-id="mail_qwjwtp15dsykt" data-item-class="Icon Stroke Indexed" data-item-index="105" data-renderer-id="0" transform="translate(303.00048828125, 518)"><g id="mail_qwjwtp15dsykt-stroke" fill="none" stroke-linecap="round" stroke-linejoin="round" stroke-miterlimit="4" stroke="#A3A3A3" stroke-width="2"><g><path d="M 42.57143 32.285713C 42.57143 37.019585 38.733868 40.857143 34 40.857143C 29.266132 40.857143 25.428572 37.019585 25.428572 32.285713L 25.428572 20.285715C 25.428572 15.551846 29.266132 11.714286 34 11.714286C 38.733868 11.714286 42.57143 15.551846 42.57143 20.285715ZM 51.142857 34L 51.142857 34C 51.151985 38.094704 49.529411 42.024326 46.634014 44.919727C 43.738613 47.815125 39.80899 49.437702 35.714283 49.42857L 32.285713 49.428574C 28.19101 49.437702 24.261385 47.815125 21.365986 44.919727C 18.470587 42.024326 16.848013 38.094704 16.857143 34L 16.857143 34M 34 49.428574L 34 56.285713"></path></g></g></g><g id="g-root-tx_diskussi_1cza3u515dnbbj-stroke" data-item-order="0" data-item-id="tx_diskussi_1cza3u515dnbbj" data-item-class="Label Stroke" data-item-index="none" data-renderer-id="0" transform="translate(123.00048828125, 2)"></g><g id="g-root-chip_1haqact15duc5j-stroke" data-item-order="0" data-item-id="chip_1haqact15duc5j" data-item-class="Icon Stroke Indexed" data-item-index="5" data-renderer-id="0" transform="translate(3.00048828125, 518)"><g id="chip_1haqact15duc5j-stroke" fill="none" stroke-linecap="round" stroke-linejoin="round" stroke-miterlimit="4" stroke="#A3A3A3" stroke-width="2"><g><path d="M 28.278 18.771999C 30.214836 18.118927 31.347731 16.110697 30.904995 14.115247C 30.462257 12.119797 28.586336 10.77914 26.555042 11.00649C 24.52375 11.233839 22.990633 12.956045 23 15C 23.005421 15.361034 23.059917 15.719655 23.161999 16.066C 22.939999 16.046 22.726 16 22.5 16C 19.64325 15.986053 17.029131 17.603924 15.767223 20.166893C 14.505317 22.729862 14.817009 25.788288 16.57 28.044001C 13.438807 28.258814 11.008611 30.861448 11.008611 34C 11.008611 37.13855 13.438807 39.741184 16.57 39.956001C 14.817009 42.211712 14.505317 45.270138 15.767223 47.833107C 17.029131 50.396076 19.64325 52.013947 22.5 52C 22.726 52 22.939999 51.953999 23.161999 51.933998C 22.567677 54.036442 23.770287 56.226803 25.863207 56.853825C 27.956127 57.480846 30.16497 56.312527 30.824539 54.229633C 31.484108 52.14674 30.350359 49.919956 28.278 49.228001M 39.722 18.771999C 37.785164 18.118927 36.652267 16.110697 37.095005 14.115247C 37.537743 12.119797 39.413666 10.77914 41.444958 11.00649C 43.47625 11.233839 45.009369 12.956045 45 15C 44.994579 15.361034 44.940079 15.719655 44.838001 16.066C 45.060001 16.046 45.273998 16 45.5 16C 48.35675 15.986053 50.970871 17.603924 52.232777 20.166893C 53.494682 22.729862 53.182991 25.788288 51.43 28.044001C 54.561192 28.258814 56.99139 30.861448 56.99139 34C 56.99139 37.13855 54.561192 39.741184 51.43 39.956001C 53.182991 42.211712 53.494682 45.270138 52.232777 47.833107C 50.970871 50.396076 48.35675 52.013947 45.5 52C 45.273998 52 45.060001 51.953999 44.838001 51.933998C 45.432323 54.036442 44.229713 56.226803 42.136795 56.853825C 40.043873 57.480846 37.83503 56.312527 37.175461 54.229633C 36.515892 52.14674 37.649643 49.919956 39.722 49.228001M 31 14.8C 32.856407 13.728203 35.143593 13.728203 37 14.8M 37 53.200001C 35.143593 54.271797 32.856407 54.271797 31 53.200001M 28 26L 40 26C 40 26 42 26 42 28L 42 40C 42 40 42 42 40 42L 28 42C 28 42 26 42 26 40L 26 28C 26 28 26 26 28 26M 30 22L 30 26M 38 22L 38 26M 22 38L 26 38M 22 30L 26 30M 38 46L 38 42M 30 46L 30 42M 46 30L 42 30M 46 38L 42 38"></path></g></g></g></g></g></svg>