<?xml version="1.0" encoding="utf-8" standalone="yes"?>
<!DOCTYPE svg PUBLIC "-//W3C//DTD SVG 1.1//EN" "http://www.w3.org/Graphics/SVG/1.1/DTD/svg11.dtd">
<svg width="708" height="385" viewBox="0 0 708 385" style="fill:none;stroke:none;fill-rule:evenodd;clip-rule:evenodd;stroke-linecap:round;stroke-linejoin:round;stroke-miterlimit:1.5;" version="1.1" xmlns="http://www.w3.org/2000/svg" xmlns:xlink="http://www.w3.org/1999/xlink"><style id="fontImports">@import url("https://fonts.googleapis.com/css2?family=Roboto:wght@400;700&amp;display=block");</style><g id="items" style="isolation: isolate"><g id="blend" style="mix-blend-mode:screen"><g id="g-root--1.cu_sy_1qeghxp16ro26b-fill" data-item-order="-110588" data-item-id="-1.cu_sy_1qeghxp16ro26b" data-item-class="Part Fill Stroke ColorFillBlack ColorStrokeBlack" data-item-index="-1" data-renderer-id="0" transform="translate(302, 74)"><g id="-1.cu_sy_1qeghxp16ro26b-fill" stroke="none" fill="#353535"><g><path d="M 65.766602 298C 80.754802 298 106.000002 233.529 106.000002 154C 106.000002 74.471 80.754802 10 65.766602 10C 80.775202 10.0075 92.941702 74.6668 92.941702 154C 92.941702 233.333 80.775202 297.992 65.766602 298ZM 65.765897 298C 80.774597 297.992 92.941097 233.333 92.941097 154C 92.941097 74.6668 80.774597 10.0075 65.765897 10L 51.957397 10C 66.060697 15.1659 77.199297 77.8539 77.199297 154C 77.199297 230.146 65.382597 292.834 51.279297 298L 65.765897 298ZM 77.2 154C 77.2 230.146 65.3833 292.834 51.28 298L 50.0615 298C 35.0734 298 10 233.529 10 154C 10 74.471 35.0734 10 50.0615 10C 50.6991 10 51.9581 10 51.9581 10C 66.0614 15.1659 77.2 77.8539 77.2 154Z"></path></g></g></g><g id="g-root-0.cr-medium_cr_1hithot16ro2z0-fill" data-item-order="-110586" data-item-id="0.cr-medium_cr_1hithot16ro2z0" data-item-class="Shape Stroke Fill Part Indexed_0" data-item-index="0" data-renderer-id="0" transform="translate(470, 182)"><g id="0.cr-medium_cr_1hithot16ro2z0-fill" stroke="none" fill="#5a3f27"><g><path d="M 10 46C 10 65.882251 26.117749 82 46 82C 65.882251 82 82 65.882251 82 46C 82 26.117749 65.882251 10 46 10C 26.117749 10 10 26.117749 10 46"></path></g></g></g><g id="g-root-2.line_sy_zs5ya516ro26f-fill" data-item-order="-110583" data-item-id="2.line_sy_zs5ya516ro26f" data-item-class="Part Indexed Stroke" data-item-index="2" data-renderer-id="0" transform="translate(218, 230)"></g><g id="g-root-2.cr-small_cr_zs5ya516ro26g-fill" data-item-order="-110582" data-item-id="2.cr-small_cr_zs5ya516ro26g" data-item-class="Shape Stroke Fill Part Indexed" data-item-index="2" data-renderer-id="0" transform="translate(158, 230)"><g id="2.cr-small_cr_zs5ya516ro26g-fill" stroke="none" fill="#2b503e"><g><path d="M 10 40C 10.000002 56.568544 23.431459 70.000002 40.000002 70.000002C 56.568544 70.000002 70.000002 56.568544 70.000002 40.000002C 70.000002 23.431459 56.568544 10.000002 40.000002 10.000002C 23.431459 10.000002 10.000002 23.431459 10.000002 40.000002"></path></g></g></g><g id="g-root-1.line_sy_1d2zzkd16ro3r9-fill" data-item-order="-110579" data-item-id="1.line_sy_1d2zzkd16ro3r9" data-item-class="Part Indexed Indexed_1 Stroke" data-item-index="1" data-renderer-id="0" transform="translate(218, 176)"></g><g id="g-root-1.cr-small_cr_147zgel16ro1e6-fill" data-item-order="-110578" data-item-id="1.cr-small_cr_147zgel16ro1e6" data-item-class="Shape Stroke Fill Part Indexed Indexed_1" data-item-index="1" data-renderer-id="0" transform="translate(158, 146)"><g id="1.cr-small_cr_147zgel16ro1e6-fill" stroke="none" fill="#224754"><g><path d="M 10 40C 10.000002 56.568544 23.431459 70.000002 40.000002 70.000002C 56.568544 70.000002 70.000002 56.568544 70.000002 40.000002C 70.000002 23.431459 56.568544 10.000002 40.000002 10.000002C 23.431459 10.000002 10.000002 23.431459 10.000002 40.000002"></path></g></g></g><g id="g-root-tx_appfunkt_qoerwt16rpgjw-fill" data-item-order="0" data-item-id="tx_appfunkt_qoerwt16rpgjw" data-item-class="Label Stroke Title" data-item-index="none" data-renderer-id="0" transform="translate(212, 2)"><g id="tx_appfunkt_qoerwt16rpgjw-fill" stroke="none" fill="#A3A3A3"><g><text style="font: 20px Roboto, sans-serif; white-space: pre;"><tspan x="17.67" y="33.5" dominant-baseline="ideographic">App-Funktionen zum Lernen</tspan></text></g></g></g><g id="g-root-tx_vorgefer_1cuvtfx16rphc3-fill" data-item-order="0" data-item-id="tx_vorgefer_1cuvtfx16rphc3" data-item-class="Label Stroke Indexed Indexed_1" data-item-index="1" data-renderer-id="0" transform="translate(2, 152)"><g id="tx_vorgefer_1cuvtfx16rphc3-fill" stroke="none" fill="#A3A3A3"><g><text style="font: 20px Roboto, sans-serif; white-space: pre;"><tspan x="35.62" y="33.5" dominant-baseline="ideographic">Vorgefertigte </tspan><tspan x="13.46" y="57.5" dominant-baseline="ideographic">Lernmaterialien</tspan></text></g></g></g><g id="g-root-1_4kfmq516rtp1r-fill" data-item-order="0" data-item-id="1_4kfmq516rtp1r" data-item-class="Icon Stroke Indexed Indexed_1 InsideFill InsideColorFill" data-item-index="1" data-renderer-id="0" transform="translate(170, 158)"></g><g id="g-root-idea_1qbyll916rtpfv-fill" data-item-order="0" data-item-id="idea_1qbyll916rtpfv" data-item-class="Icon Stroke InsideFill InsideColorFill" data-item-index="none" data-renderer-id="0" transform="translate(482, 194)"></g><g id="g-root-tx_verbesse_8vvt8t16rpgqx-fill" data-item-order="0" data-item-id="tx_verbesse_8vvt8t16rpgqx" data-item-class="Label Stroke" data-item-index="none" data-renderer-id="0" transform="translate(554, 194)"><g id="tx_verbesse_8vvt8t16rpgqx-fill" stroke="none" fill="#A3A3A3"><g><text style="font: 20px Roboto, sans-serif; white-space: pre;"><tspan x="12" y="33.5" dominant-baseline="ideographic">Verbessertes </tspan><tspan x="12" y="57.5" dominant-baseline="ideographic">Lernen</tspan></text></g></g></g><g id="g-root-tx_personal_1q5puq516rpiwy-fill" data-item-order="0" data-item-id="tx_personal_1q5puq516rpiwy" data-item-class="Label Stroke Indexed" data-item-index="2" data-renderer-id="0" transform="translate(2, 236)"><g id="tx_personal_1q5puq516rpiwy-fill" stroke="none" fill="#A3A3A3"><g><text style="font: 20px Roboto, sans-serif; white-space: pre;"><tspan x="18.66" y="33.5" dominant-baseline="ideographic">Personalisierte </tspan><tspan x="42.91" y="57.5" dominant-baseline="ideographic">Karteikarten</tspan></text></g></g></g><g id="g-root-hold_147czbh16rtnny-fill" data-item-order="0" data-item-id="hold_147czbh16rtnny" data-item-class="Icon Stroke Indexed InsideFill InsideColorFill" data-item-index="2" data-renderer-id="0" transform="translate(170, 242)"></g><g id="g-root--1.cu_sy_1qeghxp16ro26b-stroke" data-item-order="-110588" data-item-id="-1.cu_sy_1qeghxp16ro26b" data-item-class="Part Fill Stroke ColorFillBlack ColorStrokeBlack" data-item-index="-1" data-renderer-id="0" transform="translate(302, 74)"><g id="-1.cu_sy_1qeghxp16ro26b-stroke" fill="none" stroke-linecap="round" stroke-linejoin="round" stroke-miterlimit="4" stroke="#666666" stroke-width="2"><g><path d="M 65.766602 298C 80.754802 298 106.000002 233.529 106.000002 154C 106.000002 74.471 80.754802 10 65.766602 10C 80.775202 10.0075 92.941702 74.6668 92.941702 154C 92.941702 233.3332 80.775202 297.9925 65.766602 298ZM 65.765897 298C 80.774597 297.9925 92.941097 233.3332 92.941097 154C 92.941097 74.6668 80.774597 10.0075 65.765897 10L 51.957397 10C 66.060697 15.1659 77.199297 77.8539 77.199297 154C 77.199297 230.1462 65.382597 292.8341 51.279297 298L 65.765897 298ZM 77.2 154C 77.2 230.1462 65.3833 292.8341 51.28 298L 50.0615 298C 35.0734 298 10 233.529 10 154C 10 74.471 35.0734 10 50.0615 10C 50.6991 10 51.9581 10 51.9581 10C 66.0614 15.1659 77.2 77.8539 77.2 154Z"></path></g></g></g><g id="g-root-0.cr-medium_cr_1hithot16ro2z0-stroke" data-item-order="-110586" data-item-id="0.cr-medium_cr_1hithot16ro2z0" data-item-class="Shape Stroke Fill Part Indexed_0" data-item-index="0" data-renderer-id="0" transform="translate(470, 182)"><g id="0.cr-medium_cr_1hithot16ro2z0-stroke" fill="none" stroke-linecap="round" stroke-linejoin="round" stroke-miterlimit="4" stroke="#F99539" stroke-width="2"><g><path d="M 10 46C 10 65.882251 26.117749 82 46 82C 65.882251 82 82 65.882251 82 46C 82 26.117749 65.882251 10 46 10C 26.117749 10 10 26.117749 10 46"></path></g></g></g><g id="g-root-2.line_sy_zs5ya516ro26f-stroke" data-item-order="-110583" data-item-id="2.line_sy_zs5ya516ro26f" data-item-class="Part Indexed Stroke" data-item-index="2" data-renderer-id="0" transform="translate(218, 230)"><g id="2.line_sy_zs5ya516ro26f-stroke" fill="none" stroke-linecap="round" stroke-linejoin="round" stroke-miterlimit="4" stroke="#44E095" stroke-width="2"><g><path d="M 250.06 10.47998L 130 39.99998L 10 39.99998"></path><path d="M 245.8 18.17998L 250.5 10.37998L 242.7 5.57998" stroke-dasharray="none"></path></g></g></g><g id="g-root-2.cr-small_cr_zs5ya516ro26g-stroke" data-item-order="-110582" data-item-id="2.cr-small_cr_zs5ya516ro26g" data-item-class="Shape Stroke Fill Part Indexed" data-item-index="2" data-renderer-id="0" transform="translate(158, 230)"><g id="2.cr-small_cr_zs5ya516ro26g-stroke" fill="none" stroke-linecap="round" stroke-linejoin="round" stroke-miterlimit="4" stroke="#44E095" stroke-width="2"><g><path d="M 10 40C 10.000002 56.568544 23.431459 70.000002 40.000002 70.000002C 56.568544 70.000002 70.000002 56.568544 70.000002 40.000002C 70.000002 23.431459 56.568544 10.000002 40.000002 10.000002C 23.431459 10.000002 10.000002 23.431459 10.000002 40.000002"></path></g></g></g><g id="g-root-1.line_sy_1d2zzkd16ro3r9-stroke" data-item-order="-110579" data-item-id="1.line_sy_1d2zzkd16ro3r9" data-item-class="Part Indexed Indexed_1 Stroke" data-item-index="1" data-renderer-id="0" transform="translate(218, 176)"><g id="1.line_sy_1d2zzkd16ro3r9-stroke" fill="none" stroke-linecap="round" stroke-linejoin="round" stroke-miterlimit="4" stroke="#1AC6FF" stroke-width="2"><g><path d="M 250.06 39.52L 130 10L 10 10"></path><path d="M 242.7 44.4L 250.5 39.6L 245.8 31.8" stroke-dasharray="none"></path></g></g></g><g id="g-root-1.cr-small_cr_147zgel16ro1e6-stroke" data-item-order="-110578" data-item-id="1.cr-small_cr_147zgel16ro1e6" data-item-class="Shape Stroke Fill Part Indexed Indexed_1" data-item-index="1" data-renderer-id="0" transform="translate(158, 146)"><g id="1.cr-small_cr_147zgel16ro1e6-stroke" fill="none" stroke-linecap="round" stroke-linejoin="round" stroke-miterlimit="4" stroke="#1AC6FF" stroke-width="2"><g><path d="M 10 40C 10.000002 56.568544 23.431459 70.000002 40.000002 70.000002C 56.568544 70.000002 70.000002 56.568544 70.000002 40.000002C 70.000002 23.431459 56.568544 10.000002 40.000002 10.000002C 23.431459 10.000002 10.000002 23.431459 10.000002 40.000002"></path></g></g></g><g id="g-root-tx_appfunkt_qoerwt16rpgjw-stroke" data-item-order="0" data-item-id="tx_appfunkt_qoerwt16rpgjw" data-item-class="Label Stroke Title" data-item-index="none" data-renderer-id="0" transform="translate(212, 2)"></g><g id="g-root-tx_vorgefer_1cuvtfx16rphc3-stroke" data-item-order="0" data-item-id="tx_vorgefer_1cuvtfx16rphc3" data-item-class="Label Stroke Indexed Indexed_1" data-item-index="1" data-renderer-id="0" transform="translate(2, 152)"></g><g id="g-root-1_4kfmq516rtp1r-stroke" data-item-order="0" data-item-id="1_4kfmq516rtp1r" data-item-class="Icon Stroke Indexed Indexed_1 InsideFill InsideColorFill" data-item-index="1" data-renderer-id="0" transform="translate(170, 158)"><g id="1_4kfmq516rtp1r-stroke" fill="none" stroke-linecap="round" stroke-linejoin="round" stroke-miterlimit="4" stroke="#1AC6FF" stroke-width="2"><g><path d="M 45.25 43.75C 45.25 44.578426 44.578426 45.25 43.75 45.25L 12.25 45.25C 11.421573 45.25 10.75 44.578426 10.75 43.75L 10.75 12.25C 10.75 11.421573 11.421573 10.75 12.25 10.75L 43.75 10.75C 44.578426 10.75 45.25 11.421573 45.25 12.25ZM 10.75 28.75L 45.25 28.75M 21.25 45.25L 15.25 45.25L 15.25 32.5C 15.25 32.085785 15.585787 31.75 16 31.75L 20.5 31.75C 20.914213 31.75 21.25 32.085785 21.25 32.5ZM 30.25 16.75L 34.75 16.75L 34.75 28.75L 30.25 28.75ZM 38.926003 28.75L 34.243 15.109C 34.108818 14.717155 34.317673 14.290724 34.709499 14.1565L 37.547501 13.1815C 37.939346 13.047318 38.365776 13.25617 38.5 13.648L 43.683998 28.75M 30.25 28.75L 24.25 28.75L 24.25 16C 24.25 15.585787 24.585787 15.25 25 15.25L 29.5 15.25C 29.914213 15.25 30.25 15.585787 30.25 16ZM 27.25 45.25L 21.25 45.25L 21.25 32.5C 21.25 32.085785 21.585787 31.75 22 31.75L 26.5 31.75C 26.914213 31.75 27.25 32.085785 27.25 32.5ZM 40.75 45.25L 36.25 45.25L 36.25 32.5C 36.25 32.085785 36.585785 31.75 37 31.75L 40 31.75C 40.414215 31.75 40.75 32.085785 40.75 32.5ZM 36.25 45.25L 31.75 45.25L 31.75 34C 31.75 33.585785 32.085785 33.25 32.5 33.25L 35.5 33.25C 35.914215 33.25 36.25 33.585785 36.25 34ZM 18.25 36.25L 18.25 40.75M 24.25 36.25L 24.25 40.75"></path></g></g></g><g id="g-root-idea_1qbyll916rtpfv-stroke" data-item-order="0" data-item-id="idea_1qbyll916rtpfv" data-item-class="Icon Stroke InsideFill InsideColorFill" data-item-index="none" data-renderer-id="0" transform="translate(482, 194)"><g id="idea_1qbyll916rtpfv-stroke" fill="none" stroke-linecap="round" stroke-linejoin="round" stroke-miterlimit="4" stroke="#F99539" stroke-width="2"><g><path d="M 40 44.66L 40 49C 40 52.313709 37.313709 55 34 55C 30.686293 55 28 52.313709 28 49L 28 44.66M 34 55L 34 57M 36 45.860001L 36 34C 36 32.343147 37.343147 31 39 31C 40.656853 31 42 32.343147 42 34C 42 35.656853 40.656853 37 39 37L 29 37C 27.343147 37 26 35.656853 26 34C 26 32.343147 27.343147 31 29 31C 30.656855 31 32 32.343147 32 34L 32 45.860001M 28.08 50L 39.919998 50M 20 32C 20 39.731987 26.268015 46 34 46C 41.731987 46 48 39.731987 48 32C 48 24.268015 41.731987 18 34 18C 26.268015 18 20 24.268015 20 32M 34 11L 34 13M 19.16 17.16L 20.560001 18.560001M 13 32L 15 32M 19.16 46.860001L 20.560001 45.439999M 48.84 46.860001L 47.439999 45.439999M 55 32L 53 32M 48.84 17.16L 47.439999 18.560001"></path></g></g></g><g id="g-root-tx_verbesse_8vvt8t16rpgqx-stroke" data-item-order="0" data-item-id="tx_verbesse_8vvt8t16rpgqx" data-item-class="Label Stroke" data-item-index="none" data-renderer-id="0" transform="translate(554, 194)"></g><g id="g-root-tx_personal_1q5puq516rpiwy-stroke" data-item-order="0" data-item-id="tx_personal_1q5puq516rpiwy" data-item-class="Label Stroke Indexed" data-item-index="2" data-renderer-id="0" transform="translate(2, 236)"></g><g id="g-root-hold_147czbh16rtnny-stroke" data-item-order="0" data-item-id="hold_147czbh16rtnny" data-item-class="Icon Stroke Indexed InsideFill InsideColorFill" data-item-index="2" data-renderer-id="0" transform="translate(170, 242)"><g id="hold_147czbh16rtnny-stroke" fill="none" stroke-linecap="round" stroke-linejoin="round" stroke-miterlimit="4" stroke="#44E095" stroke-width="2"><g><path d="M 16.053999 26.693501C 15.03863 28.184055 14.496993 29.946468 14.5 31.75L 14.5 37.819C 14.5 40.088501 15.507999 41.163998 17.5 42.25L 17.5 45.25M 34 36.25L 34 38.039501C 33.935501 40.159 32.9305 41.198502 31 42.25L 31 45.25M 19.42 30.018999L 14.2 24.863501C 6.37 17.561501 17.299 5.8075 25 12.991L 28 15.787L 31 12.991C 38.703999 5.8075 49.633003 17.561501 41.800003 24.863501L 28.526501 37.970497C 28.234867 38.256359 27.768133 38.256359 27.4765 37.970497L 26.477499 36.983501C 26.627501 35.483501 27.202 32.799999 24.470501 31.354L 26.255501 27.982C 26.752478 27.172115 26.757925 26.153076 26.269634 25.337923C 25.781342 24.522768 24.880314 24.046726 23.931753 24.102741C 22.983192 24.15876 22.144457 24.737543 21.755501 25.604502L 17.5 33.647499"></path></g></g></g></g></g></svg>