<?xml version="1.0" encoding="utf-8" standalone="yes"?>
<!DOCTYPE svg PUBLIC "-//W3C//DTD SVG 1.1//EN" "http://www.w3.org/Graphics/SVG/1.1/DTD/svg11.dtd">
<svg width="258" height="362" viewBox="0 0 258 362" style="fill:none;stroke:none;fill-rule:evenodd;clip-rule:evenodd;stroke-linecap:round;stroke-linejoin:round;stroke-miterlimit:1.5;" version="1.1" xmlns="http://www.w3.org/2000/svg" xmlns:xlink="http://www.w3.org/1999/xlink"><style id="fontImports">@import url("https://fonts.googleapis.com/css2?family=Roboto:wght@400;700&amp;display=block");</style><g id="items" style="isolation: isolate"><g id="blend" style="mix-blend-mode:screen"><g id="g-root-badg_1uqjrod17vuwhy-fill" data-item-order="0" data-item-id="badg_1uqjrod17vuwhy" data-item-class="Icon Stroke Indexed" data-item-index="none" data-renderer-id="0" transform="translate(8, 3)"></g><g id="g-root-tx_abzeiche_1lw5plp17vnv9p-fill" data-item-order="0" data-item-id="tx_abzeiche_1lw5plp17vnv9p" data-item-class="Label Stroke Indexed" data-item-index="none" data-renderer-id="0" transform="translate(56, 9)"><g id="tx_abzeiche_1lw5plp17vnv9p-fill" stroke="none" fill="#A3A3A3"><g><text style="font: 20px Roboto, sans-serif; white-space: pre;"><tspan x="12" y="33.5" dominant-baseline="ideographic">Abzeichen</tspan></text></g></g></g><g id="g-root-incr_qtf6ql17vuux4-fill" data-item-order="0" data-item-id="incr_qtf6ql17vuux4" data-item-class="Icon Stroke Indexed" data-item-index="none" data-renderer-id="0" transform="translate(8, 63)"></g><g id="g-root-tx_lernstre_18lbobh17vntou-fill" data-item-order="0" data-item-id="tx_lernstre_18lbobh17vntou" data-item-class="Label Stroke Indexed" data-item-index="none" data-renderer-id="0" transform="translate(56, 69)"><g id="tx_lernstre_18lbobh17vntou-fill" stroke="none" fill="#A3A3A3"><g><text style="font: 20px Roboto, sans-serif; white-space: pre;"><tspan x="12" y="33.5" dominant-baseline="ideographic">Lern-Streaks</tspan></text></g></g></g><g id="g-root-trop_v5hucd17vuww0-fill" data-item-order="0" data-item-id="trop_v5hucd17vuww0" data-item-class="Icon Stroke Indexed" data-item-index="none" data-renderer-id="0" transform="translate(8, 123)"></g><g id="g-root-tx_wettkmpf_v9v5y517vnv9r-fill" data-item-order="0" data-item-id="tx_wettkmpf_v9v5y517vnv9r" data-item-class="Label Stroke Indexed" data-item-index="none" data-renderer-id="0" transform="translate(56, 129)"><g id="tx_wettkmpf_v9v5y517vnv9r-fill" stroke="none" fill="#A3A3A3"><g><text style="font: 20px Roboto, sans-serif; white-space: pre;"><tspan x="12" y="33.5" dominant-baseline="ideographic">Wettkämpfe</tspan></text></g></g></g><g id="g-root-open_qrjrh917vuvws-fill" data-item-order="0" data-item-id="open_qrjrh917vuvws" data-item-class="Icon Stroke Indexed" data-item-index="none" data-renderer-id="0" transform="translate(8, 183)"></g><g id="g-root-tx_erfahrun_meumsd17vntog-fill" data-item-order="0" data-item-id="tx_erfahrun_meumsd17vntog" data-item-class="Label Stroke Indexed" data-item-index="none" data-renderer-id="0" transform="translate(56, 189)"><g id="tx_erfahrun_meumsd17vntog-fill" stroke="none" fill="#A3A3A3"><g><text style="font: 20px Roboto, sans-serif; white-space: pre;"><tspan x="12" y="33.5" dominant-baseline="ideographic">Erfahrungsberichte</tspan></text></g></g></g><g id="g-root-time_74n3117vuux6-fill" data-item-order="0" data-item-id="time_74n3117vuux6" data-item-class="Icon Stroke Indexed" data-item-index="none" data-renderer-id="0" transform="translate(8, 243)"></g><g id="g-root-tx_erinneru_7r46517vnw21-fill" data-item-order="0" data-item-id="tx_erinneru_7r46517vnw21" data-item-class="Label Stroke Indexed" data-item-index="none" data-renderer-id="0" transform="translate(56, 249)"><g id="tx_erinneru_7r46517vnw21-fill" stroke="none" fill="#A3A3A3"><g><text style="font: 20px Roboto, sans-serif; white-space: pre;"><tspan x="12" y="33.5" dominant-baseline="ideographic">Erinnerungen</tspan></text></g></g></g><g id="g-root-1_8z0st917vuw3t-fill" data-item-order="0" data-item-id="1_8z0st917vuw3t" data-item-class="Icon Stroke Indexed" data-item-index="none" data-renderer-id="0" transform="translate(8, 303)"></g><g id="g-root-tx_lernfort_1ly14v117vnua2-fill" data-item-order="0" data-item-id="tx_lernfort_1ly14v117vnua2" data-item-class="Label Stroke Indexed" data-item-index="none" data-renderer-id="0" transform="translate(56, 309)"><g id="tx_lernfort_1ly14v117vnua2-fill" stroke="none" fill="#A3A3A3"><g><text style="font: 20px Roboto, sans-serif; white-space: pre;"><tspan x="12" y="33.5" dominant-baseline="ideographic">Lernfortschritt</tspan></text></g></g></g><g id="g-root-badg_1uqjrod17vuwhy-stroke" data-item-order="0" data-item-id="badg_1uqjrod17vuwhy" data-item-class="Icon Stroke Indexed" data-item-index="none" data-renderer-id="0" transform="translate(8, 3)"><g id="badg_1uqjrod17vuwhy-stroke" fill="none" stroke-linecap="round" stroke-linejoin="round" stroke-miterlimit="4" stroke="#FFE60A" stroke-width="2"><g><path d="M 13.75 12.3505C 13.75 11.522073 14.421573 10.8505 15.25 10.8505L 40.75 10.8505C 41.578426 10.8505 42.25 11.522073 42.25 12.3505L 42.25 21.747999C 42.251984 31.349907 37.09235 40.211693 28.741001 44.950001C 28.281494 45.211075 27.718506 45.211075 27.258999 44.949997C 18.907419 40.211922 13.747701 31.349991 13.75 21.747999L 13.75 12.3505ZM 13.7515 15.3505L 42.251499 15.3505M 28.883499 20.580999L 30.807999 24.355L 34.557999 24.355C 34.944756 24.341263 35.298714 24.571163 35.443428 24.93009C 35.588139 25.289015 35.492622 25.700134 35.204498 25.958498L 31.949501 29.349998L 33.7495 33.491501C 33.911598 33.879921 33.807861 34.328465 33.49168 34.60627C 33.175495 34.884079 32.717335 34.929234 32.353001 34.718498L 28 32.2705L 23.650002 34.7215C 23.285666 34.932236 22.827503 34.887077 22.51132 34.609272C 22.195137 34.331463 22.0914 33.882923 22.2535 33.494499L 24.053501 29.353001L 20.807499 25.9585C 20.51804 25.701197 20.421196 25.289911 20.565437 24.930485C 20.709679 24.57106 21.063971 24.340822 21.451 24.355L 25.201 24.355L 27.1285 20.580999C 27.299192 20.254221 27.637327 20.04936 28.006001 20.04936C 28.374674 20.04936 28.712809 20.254221 28.883501 20.581001Z"></path></g></g></g><g id="g-root-tx_abzeiche_1lw5plp17vnv9p-stroke" data-item-order="0" data-item-id="tx_abzeiche_1lw5plp17vnv9p" data-item-class="Label Stroke Indexed" data-item-index="none" data-renderer-id="0" transform="translate(56, 9)"></g><g id="g-root-incr_qtf6ql17vuux4-stroke" data-item-order="0" data-item-id="incr_qtf6ql17vuux4" data-item-class="Icon Stroke Indexed" data-item-index="none" data-renderer-id="0" transform="translate(8, 63)"><g id="incr_qtf6ql17vuux4-stroke" fill="none" stroke-linecap="round" stroke-linejoin="round" stroke-miterlimit="4" stroke="#F99539" stroke-width="2"><g><path d="M 10 10M 41.906502 15.625L 37.827999 31.3825C 36.45726 36.677223 31.679777 40.375221 26.210501 40.375L 10.75 40.375M 10 10M 36.491501 18.9685L 41.906502 15.625L 45.25 21.040001"></path></g></g></g><g id="g-root-tx_lernstre_18lbobh17vntou-stroke" data-item-order="0" data-item-id="tx_lernstre_18lbobh17vntou" data-item-class="Label Stroke Indexed" data-item-index="none" data-renderer-id="0" transform="translate(56, 69)"></g><g id="g-root-trop_v5hucd17vuww0-stroke" data-item-order="0" data-item-id="trop_v5hucd17vuww0" data-item-class="Icon Stroke Indexed" data-item-index="none" data-renderer-id="0" transform="translate(8, 123)"><g id="trop_v5hucd17vuww0-stroke" fill="none" stroke-linecap="round" stroke-linejoin="round" stroke-miterlimit="4" stroke="#F669BE" stroke-width="2"><g><path d="M 28 31.857143L 28 44.714287M 21.571428 44.714287L 34.42857 44.714287M 19 24.142857C 14.739517 24.142857 11.285714 20.689054 11.285714 16.428572L 11.285714 13.857142L 20.285713 13.857142L 20.285713 24.142857ZM 37 24.142857C 41.260483 24.142857 44.714287 20.689054 44.714287 16.428572L 44.714287 13.857142L 35.714287 13.857142L 35.714287 24.142857ZM 35.714287 24.142857C 35.714287 28.403339 32.260483 31.857143 28 31.857143C 23.739517 31.857143 20.285713 28.403339 20.285713 24.142857L 20.285713 11.285714L 35.714287 11.285714Z"></path></g></g></g><g id="g-root-tx_wettkmpf_v9v5y517vnv9r-stroke" data-item-order="0" data-item-id="tx_wettkmpf_v9v5y517vnv9r" data-item-class="Label Stroke Indexed" data-item-index="none" data-renderer-id="0" transform="translate(56, 129)"></g><g id="g-root-open_qrjrh917vuvws-stroke" data-item-order="0" data-item-id="open_qrjrh917vuvws" data-item-class="Icon Stroke Indexed" data-item-index="none" data-renderer-id="0" transform="translate(8, 183)"><g id="open_qrjrh917vuvws-stroke" fill="none" stroke-linecap="round" stroke-linejoin="round" stroke-miterlimit="4" stroke="#CD6AFB" stroke-width="2"><g><path d="M 28 44.714287C 24.233469 40.567501 19.125475 37.881477 13.574286 37.128571C 12.265595 36.983761 11.277727 35.873795 11.285714 34.557144L 11.285714 13.857142C 11.285665 13.105484 11.614503 12.391436 12.185715 11.902857C 12.746628 11.423366 13.486506 11.207958 14.217143 11.311428C 19.525322 12.192418 24.381273 14.837824 28.000002 18.82ZM 28 44.714287C 31.766529 40.567501 36.874523 37.881477 42.425716 37.128571C 43.734402 36.983761 44.722271 35.873795 44.714287 34.557144L 44.714287 13.857142C 44.714333 13.105484 44.385498 12.391436 43.814285 11.902857C 43.253372 11.423366 42.513493 11.207958 41.782856 11.311428C 36.474678 12.192418 31.618727 14.837824 28.000002 18.82Z"></path></g></g></g><g id="g-root-tx_erfahrun_meumsd17vntog-stroke" data-item-order="0" data-item-id="tx_erfahrun_meumsd17vntog" data-item-class="Label Stroke Indexed" data-item-index="none" data-renderer-id="0" transform="translate(56, 189)"></g><g id="g-root-time_74n3117vuux6-stroke" data-item-order="0" data-item-id="time_74n3117vuux6" data-item-class="Icon Stroke Indexed" data-item-index="none" data-renderer-id="0" transform="translate(8, 243)"><g id="time_74n3117vuux6-stroke" fill="none" stroke-linecap="round" stroke-linejoin="round" stroke-miterlimit="4" stroke="#886AFF" stroke-width="2"><g><path d="M 27.25 19.751499C 27.250002 24.722063 31.279438 28.751501 36.25 28.751501C 41.220566 28.751501 45.25 24.722063 45.25 19.751501C 45.25 14.780937 41.220566 10.7515 36.25 10.7515C 31.279438 10.7515 27.250002 14.780937 27.250002 19.751501ZM 39.25 21.251499L 35.5 21.251499L 35.5 16.001499M 26.5 42.25C 26.5 43.906857 25.156855 45.25 23.5 45.25C 21.843145 45.25 20.5 43.906857 20.5 42.25M 24.25 19.827999C 24.003321 19.776447 23.752008 19.750311 23.5 19.75C 21.428932 19.75 19.75 21.428932 19.75 23.5C 16.116692 25.013878 13.75 28.563917 13.75 32.5L 13.75 39.25C 13.75 40.906857 12.406855 42.25 10.75 42.25L 36.25 42.25C 34.593143 42.25 33.25 40.906857 33.25 39.25L 33.25 32.5C 33.244099 32.10957 33.214546 31.719854 33.161499 31.333"></path></g></g></g><g id="g-root-tx_erinneru_7r46517vnw21-stroke" data-item-order="0" data-item-id="tx_erinneru_7r46517vnw21" data-item-class="Label Stroke Indexed" data-item-index="none" data-renderer-id="0" transform="translate(56, 249)"></g><g id="g-root-1_8z0st917vuw3t-stroke" data-item-order="0" data-item-id="1_8z0st917vuw3t" data-item-class="Icon Stroke Indexed" data-item-index="none" data-renderer-id="0" transform="translate(8, 303)"><g id="1_8z0st917vuw3t-stroke" fill="none" stroke-linecap="round" stroke-linejoin="round" stroke-miterlimit="4" stroke="#4F92FF" stroke-width="2"><g><path d="M 45.25 39.25C 45.25 40.906857 43.906857 42.25 42.25 42.25L 13.75 42.25C 12.093145 42.25 10.75 40.906857 10.75 39.25L 10.75 18.25C 10.75 16.593145 12.093145 15.25 13.75 15.25L 42.25 15.25C 43.906857 15.25 45.25 16.593145 45.25 18.25ZM 10.75 22.747L 45.25 22.747M 15.25 32.5C 15.25 30.428932 16.928932 28.75 19 28.75L 37 28.75C 39.071068 28.75 40.75 30.428932 40.75 32.5C 40.75 34.571068 39.071068 36.25 37 36.25L 19 36.25C 16.928932 36.25 15.25 34.571068 15.25 32.5ZM 18.311501 36.182499L 25.747 28.747M 24.997 36.246998L 32.497002 28.747M 16.747 15.247L 16.747 22.747M 22.747 15.247L 22.747 22.747"></path></g></g></g><g id="g-root-tx_lernfort_1ly14v117vnua2-stroke" data-item-order="0" data-item-id="tx_lernfort_1ly14v117vnua2" data-item-class="Label Stroke Indexed" data-item-index="none" data-renderer-id="0" transform="translate(56, 309)"></g></g></g></svg>